<svg width="49" height="48" viewBox="0 0 49 48" fill="none" xmlns="http://www.w3.org/2000/svg">
<g id="SVG" clip-path="url(#clip0_57_6386)">
<path id="Vector" d="M47.7037 1.24663C47.2453 0.786368 46.6607 0.472502 46.0238 0.344799C45.3869 0.217095 44.7264 0.2813 44.1261 0.52928C43.5257 0.77726 43.0124 1.19786 42.6513 1.73779C42.2902 2.27772 42.0974 2.91269 42.0975 3.56226V9.25288H29.9193C29.7453 9.25288 29.5784 9.32203 29.4553 9.4451C29.3322 9.56817 29.2631 9.73509 29.2631 9.90913C29.2631 10.0832 29.3322 10.2501 29.4553 10.3732C29.5784 10.4962 29.7453 10.5654 29.9193 10.5654H42.0975V29.831C42.0994 29.9113 42.1153 29.9906 42.1443 30.0654L44.7693 37.1623C44.8139 37.2883 44.8964 37.3974 45.0055 37.4747C45.1147 37.5519 45.245 37.5934 45.3787 37.5935C45.5137 37.594 45.6455 37.5528 45.7562 37.4757C45.8669 37.3985 45.9512 37.289 45.9975 37.1623L46.8037 34.9779L47.3475 33.506V46.406H8.64746C7.03691 46.4036 5.49262 45.7646 4.35115 44.6284C3.20969 43.4922 2.5636 41.9509 2.55371 40.3404C2.53496 37.0966 5.32871 34.2841 8.65684 34.2185C8.82849 34.2137 8.99164 34.1427 9.11219 34.0204C9.23274 33.8981 9.30136 33.734 9.30371 33.5623V10.5654H21.4818C21.6559 10.5654 21.8228 10.4962 21.9459 10.3732C22.0689 10.2501 22.1381 10.0832 22.1381 9.90913C22.1381 9.73509 22.0689 9.56817 21.9459 9.4451C21.8228 9.32203 21.6559 9.25288 21.4818 9.25288H9.30371V0.93726C9.30371 0.763212 9.23457 0.596292 9.1115 0.473221C8.98843 0.35015 8.82151 0.28101 8.64746 0.28101C6.6832 0.28101 4.79939 1.06131 3.41045 2.45025C2.02151 3.83919 1.24121 5.723 1.24121 7.68726V40.3498C1.25358 42.3068 2.03904 44.1795 3.42637 45.5598C4.81371 46.9401 6.69043 47.7161 8.64746 47.7185H48.0037C48.1778 47.7185 48.3447 47.6494 48.4677 47.5263C48.5908 47.4032 48.66 47.2363 48.66 47.0623V3.56226C48.6615 3.13224 48.5778 2.70617 48.4137 2.3087C48.2495 1.91123 48.0082 1.55025 47.7037 1.24663ZM2.55371 7.68726C2.54871 6.23984 3.06068 4.8382 3.9974 3.73475C4.93413 2.6313 6.23406 1.89857 7.66309 1.66851L7.99121 1.62163V32.9435L7.74746 32.981C6.10772 33.2075 4.58855 33.9687 3.42559 35.1466L3.04121 35.5591L2.55371 36.1216V7.68726ZM46.9256 30.8716L45.6506 34.331L45.3787 35.0435L45.1162 34.331L43.8412 30.8716L43.7006 30.4873H47.0662L46.9256 30.8716ZM47.3475 29.1748H43.41V6.69351H47.3475V29.1748ZM47.3475 5.38101H43.41V3.56226C43.41 3.04011 43.6174 2.53936 43.9866 2.17014C44.3558 1.80093 44.8566 1.59351 45.3787 1.59351C45.9009 1.59351 46.4016 1.80093 46.7708 2.17014C47.14 2.53936 47.3475 3.04011 47.3475 3.56226V5.38101Z" fill="#1A1A1A"/>
<path id="Vector_2" d="M35.0752 19.2002H16.3252C16.1511 19.2002 15.9842 19.2693 15.8612 19.3924C15.7381 19.5155 15.6689 19.6824 15.6689 19.8564V37.1064C15.6689 37.2805 15.7381 37.4474 15.8612 37.5705C15.9842 37.6936 16.1511 37.7627 16.3252 37.7627H20.8252C20.9992 37.7627 21.1662 37.6936 21.2892 37.5705C21.4123 37.4474 21.4814 37.2805 21.4814 37.1064V30.2814H29.9189V37.1064C29.9189 37.2805 29.9881 37.4474 30.1112 37.5705C30.2342 37.6936 30.4011 37.7627 30.5752 37.7627H35.0752C35.2492 37.7627 35.4162 37.6936 35.5392 37.5705C35.6623 37.4474 35.7314 37.2805 35.7314 37.1064V19.8564C35.7314 19.6824 35.6623 19.5155 35.5392 19.3924C35.4162 19.2693 35.2492 19.2002 35.0752 19.2002ZM20.1689 36.4502H16.9814V25.7627H20.1689V36.4502ZM29.9189 28.9689H21.4814V25.7627H29.9189V28.9689ZM34.4189 36.4502H31.2314V25.7627H34.4189V36.4502ZM34.4189 24.4502H16.9814V20.5127H34.4189V24.4502Z" fill="#1A1A1A"/>
<path id="Vector_3" d="M26.3564 9.90923C26.3564 10.081 26.2891 10.2459 26.1689 10.3686C26.1078 10.431 26.0349 10.4805 25.9544 10.5143C25.8739 10.5482 25.7875 10.5656 25.7002 10.5656C25.6129 10.5656 25.5264 10.5482 25.4459 10.5143C25.3654 10.4805 25.2925 10.431 25.2314 10.3686C25.1106 10.2443 25.043 10.0779 25.043 9.90454C25.043 9.73122 25.1106 9.56473 25.2314 9.44048C25.3575 9.3197 25.5255 9.25249 25.7002 9.25298C25.7854 9.25194 25.8699 9.268 25.9488 9.3002C26.0277 9.33241 26.0994 9.38011 26.1595 9.44048C26.2232 9.50057 26.2736 9.57332 26.3075 9.65404C26.3414 9.73477 26.3581 9.82169 26.3564 9.90923Z" fill="#1A1A1A"/>
</g>
<defs>
<clipPath id="clip0_57_6386">
<rect width="48" height="48" fill="white" transform="translate(0.950195)"/>
</clipPath>
</defs>
</svg>
