<svg width="49" height="48" viewBox="0 0 49 48" fill="none" xmlns="http://www.w3.org/2000/svg">
<g id="SVG">
<path id="Vector" d="M17.4973 28.6218C17.4973 28.7834 17.4331 28.9384 17.3188 29.0527C17.2046 29.1669 17.0496 29.2312 16.8879 29.2312H13.3723C13.2866 29.2418 13.1996 29.2342 13.117 29.2087C13.0345 29.1832 12.9583 29.1404 12.8935 29.0833C12.8288 29.0261 12.7769 28.9558 12.7414 28.877C12.7059 28.7983 12.6875 28.7129 12.6875 28.6265C12.6875 28.5401 12.7059 28.4547 12.7414 28.3759C12.7769 28.2972 12.8288 28.2269 12.8935 28.1697C12.9583 28.1125 13.0345 28.0697 13.117 28.0442C13.1996 28.0187 13.2866 28.0111 13.3723 28.0218H16.8879C17.0479 28.0218 17.2015 28.0847 17.3156 28.1969C17.4296 28.3092 17.4949 28.4618 17.4973 28.6218Z" fill="#1A1A1A"/>
<path id="Vector_2" d="M37.1374 28.6218C37.1374 28.7834 37.0731 28.9384 36.9589 29.0527C36.8446 29.1669 36.6896 29.2312 36.528 29.2312H20.3186C20.2329 29.2418 20.1459 29.2342 20.0633 29.2087C19.9808 29.1832 19.9046 29.1404 19.8398 29.0833C19.7751 29.0261 19.7232 28.9558 19.6877 28.877C19.6522 28.7983 19.6338 28.7129 19.6338 28.6265C19.6338 28.5401 19.6522 28.4547 19.6877 28.3759C19.7232 28.2972 19.7751 28.2269 19.8398 28.1697C19.9046 28.1125 19.9808 28.0697 20.0633 28.0442C20.1459 28.0187 20.2329 28.0111 20.3186 28.0218H36.528C36.688 28.0218 36.8416 28.0847 36.9556 28.1969C37.0696 28.3092 37.1349 28.4618 37.1374 28.6218Z" fill="#1A1A1A"/>
<path id="Vector_3" d="M17.4973 33.2249C17.4949 33.3849 17.4296 33.5375 17.3156 33.6497C17.2015 33.762 17.0479 33.8249 16.8879 33.8249H13.3723C13.2866 33.8356 13.1996 33.8279 13.117 33.8024C13.0345 33.7769 12.9583 33.7342 12.8935 33.677C12.8288 33.6198 12.7769 33.5495 12.7414 33.4708C12.7059 33.392 12.6875 33.3066 12.6875 33.2202C12.6875 33.1338 12.7059 33.0484 12.7414 32.9697C12.7769 32.8909 12.8288 32.8206 12.8935 32.7634C12.9583 32.7062 13.0345 32.6635 13.117 32.638C13.1996 32.6125 13.2866 32.6048 13.3723 32.6155H16.8879C17.0496 32.6155 17.2046 32.6797 17.3188 32.794C17.4331 32.9083 17.4973 33.0633 17.4973 33.2249Z" fill="#1A1A1A"/>
<path id="Vector_4" d="M37.1374 33.2249C37.1349 33.3849 37.0696 33.5375 36.9556 33.6497C36.8416 33.762 36.688 33.8249 36.528 33.8249H20.3186C20.2329 33.8356 20.1459 33.8279 20.0633 33.8024C19.9808 33.7769 19.9046 33.7342 19.8398 33.677C19.7751 33.6198 19.7232 33.5495 19.6877 33.4708C19.6522 33.392 19.6338 33.3066 19.6338 33.2202C19.6338 33.1338 19.6522 33.0484 19.6877 32.9697C19.7232 32.8909 19.7751 32.8206 19.8398 32.7634C19.9046 32.7062 19.9808 32.6635 20.0633 32.638C20.1459 32.6125 20.2329 32.6048 20.3186 32.6155H36.528C36.6896 32.6155 36.8446 32.6797 36.9589 32.794C37.0731 32.9083 37.1374 33.0633 37.1374 33.2249Z" fill="#1A1A1A"/>
<path id="Vector_5" d="M17.4971 37.8188C17.4971 37.9805 17.4329 38.1355 17.3186 38.2497C17.2043 38.364 17.0493 38.4282 16.8877 38.4282H13.3721C13.2105 38.4282 13.0555 38.364 12.9412 38.2497C12.8269 38.1355 12.7627 37.9805 12.7627 37.8188C12.7627 37.6572 12.8269 37.5022 12.9412 37.388C13.0555 37.2737 13.2105 37.2095 13.3721 37.2095H16.8877C17.0493 37.2095 17.2043 37.2737 17.3186 37.388C17.4329 37.5022 17.4971 37.6572 17.4971 37.8188Z" fill="#1A1A1A"/>
<path id="Vector_6" d="M37.1381 37.8188C37.1381 37.9805 37.0739 38.1355 36.9596 38.2497C36.8453 38.364 36.6903 38.4282 36.5287 38.4282H20.3193C20.1577 38.4282 20.0027 38.364 19.8884 38.2497C19.7742 38.1355 19.71 37.9805 19.71 37.8188C19.71 37.6572 19.7742 37.5022 19.8884 37.388C20.0027 37.2737 20.1577 37.2095 20.3193 37.2095H36.5287C36.6903 37.2095 36.8453 37.2737 36.9596 37.388C37.0739 37.5022 37.1381 37.6572 37.1381 37.8188Z" fill="#1A1A1A"/>
<path id="Vector_7" d="M25.5223 14.5406L25.4379 14.5219V12L25.5598 12.0281C26.1899 12.1784 26.775 12.4774 27.266 12.9L27.9879 11.9344C27.2977 11.3368 26.4399 10.9669 25.5316 10.875H25.4379V10.125H24.5191V10.8656H24.4348C22.9723 11.0438 21.9879 12.0188 21.9879 13.2938C21.9879 14.5688 22.9348 15.1875 24.4441 15.5813L24.5191 15.6V18.1969L24.3973 18.1688C23.6738 18.0097 23.0047 17.6639 22.4566 17.1656L21.6973 18.1031C22.4641 18.7807 23.4188 19.209 24.4348 19.3313H24.5191V20.1375H25.4379V19.3594H25.5316C27.2004 19.2469 28.241 18.3 28.241 16.8938C28.241 15.4875 27.1535 14.9063 25.5223 14.5406ZM23.366 12.9844C23.4177 12.7344 23.5455 12.5065 23.7318 12.3319C23.9181 12.1574 24.1538 12.0447 24.4066 12.0094L24.5285 11.9906V14.2875L24.3879 14.2406C23.7598 14.0156 23.3379 13.7437 23.3379 13.1625C23.3418 13.1024 23.3512 13.0428 23.366 12.9844ZM25.5504 18.2531H25.4379V15.8156L25.5691 15.8531C26.4129 16.1063 26.9098 16.3781 26.9098 17.0344C26.9098 17.6906 26.3754 18.1594 25.5504 18.2531Z" fill="#1A1A1A"/>
<path id="Vector_8" d="M24.9506 6.14062C23.1724 6.14062 21.4342 6.66792 19.9557 7.65582C18.4772 8.64372 17.3248 10.0479 16.6443 11.6907C15.9639 13.3335 15.7858 15.1412 16.1327 16.8852C16.4796 18.6292 17.3359 20.2312 18.5933 21.4886C19.8506 22.7459 21.4526 23.6022 23.1966 23.9491C24.9406 24.296 26.7483 24.118 28.3912 23.4375C30.034 22.757 31.4381 21.6047 32.426 20.1262C33.4139 18.6477 33.9412 16.9094 33.9412 15.1312C33.9387 12.7475 32.9907 10.4622 31.3052 8.77666C29.6196 7.09113 27.3343 6.14311 24.9506 6.14062ZM24.9506 22.9125C23.4112 22.9144 21.9059 22.4596 20.625 21.6057C19.3442 20.7518 18.3454 19.5372 17.755 18.1155C17.1646 16.6938 17.0092 15.129 17.3083 13.619C17.6075 12.1089 18.3479 10.7216 19.4357 9.6324C20.5236 8.54323 21.91 7.80121 23.4197 7.50021C24.9294 7.19921 26.4944 7.35275 27.9168 7.94142C29.3392 8.53009 30.555 9.52742 31.4104 10.8072C32.2659 12.0871 32.7225 13.5919 32.7225 15.1312C32.7225 17.1933 31.9039 19.1711 30.4467 20.6301C28.9895 22.0891 27.0127 22.91 24.9506 22.9125Z" fill="#1A1A1A"/>
<path id="Vector_9" d="M42.0975 0.09375H7.80373C7.64211 0.09375 7.48712 0.157952 7.37284 0.272232C7.25856 0.386512 7.19435 0.541509 7.19435 0.703125V47.2969C7.19374 47.377 7.20919 47.4565 7.23978 47.5305C7.27037 47.6046 7.31549 47.6718 7.37248 47.7281C7.48855 47.8399 7.64263 47.9035 7.80373 47.9062C7.96522 47.9054 8.11998 47.8415 8.23498 47.7281L11.16 44.8031L11.235 44.7281L11.3006 44.8031L14.235 47.7281C14.2908 47.7845 14.3572 47.8293 14.4304 47.8599C14.5036 47.8904 14.5822 47.9062 14.6615 47.9062C14.7409 47.9062 14.8194 47.8904 14.8927 47.8599C14.9659 47.8293 15.0323 47.7845 15.0881 47.7281L18.0225 44.8031L18.0881 44.7281L18.1631 44.8031L21.0975 47.7281C21.209 47.8409 21.3607 47.905 21.5194 47.9062C21.6808 47.9054 21.8356 47.8415 21.9506 47.7281L24.8756 44.8031L24.9506 44.7281L25.0256 44.8031L27.9506 47.7281C28.0656 47.8415 28.2204 47.9054 28.3819 47.9062C28.5429 47.9035 28.697 47.8399 28.8131 47.7281L31.7381 44.8031L31.8131 44.7281L31.8787 44.8031L34.8131 47.7281C34.8689 47.7845 34.9353 47.8293 35.0086 47.8599C35.0818 47.8904 35.1603 47.9062 35.2397 47.9062C35.319 47.9062 35.3976 47.8904 35.4708 47.8599C35.544 47.8293 35.6104 47.7845 35.6662 47.7281L38.6006 44.8031L38.6662 44.7281L38.7412 44.8031L41.6662 47.7281C41.7812 47.8415 41.936 47.9054 42.0975 47.9062C42.2586 47.9035 42.4127 47.8399 42.5287 47.7281C42.5857 47.6718 42.6308 47.6046 42.6614 47.5305C42.692 47.4565 42.7075 47.377 42.7069 47.2969V0.703125C42.7069 0.541509 42.6427 0.386512 42.5284 0.272232C42.4141 0.157952 42.2591 0.09375 42.0975 0.09375ZM41.4975 1.40625V45.8344L41.3287 45.6656L39.1069 43.4437C39.0511 43.3873 38.9846 43.3426 38.9114 43.312C38.8382 43.2814 38.7596 43.2657 38.6803 43.2657C38.601 43.2657 38.5224 43.2814 38.4492 43.312C38.376 43.3426 38.3095 43.3873 38.2537 43.4437L35.3194 46.3781L35.2537 46.4437L35.1787 46.3781L32.2444 43.4437C32.1886 43.3873 32.1221 43.3426 32.0489 43.312C31.9757 43.2814 31.8971 43.2657 31.8178 43.2657C31.7384 43.2657 31.6599 43.2814 31.5867 43.312C31.5135 43.3426 31.447 43.3873 31.3912 43.4437L28.4662 46.3781L28.3912 46.4437L28.3162 46.3781L25.3912 43.4437C25.2762 43.3304 25.1215 43.2664 24.96 43.2656C24.7989 43.2684 24.6448 43.332 24.5287 43.4437L21.6037 46.3781L21.5287 46.4437L21.4631 46.3781L18.5287 43.4437C18.4729 43.3873 18.4065 43.3426 18.3333 43.312C18.2601 43.2814 18.1815 43.2657 18.1022 43.2657C18.0228 43.2657 17.9443 43.2814 17.8711 43.312C17.7978 43.3426 17.7314 43.3873 17.6756 43.4437L14.7319 46.3781L14.6662 46.4437L11.6662 43.4437C11.5512 43.3304 11.3965 43.2664 11.235 43.2656C11.0739 43.2684 10.9198 43.332 10.8037 43.4437L8.4131 45.8344V1.30312H41.4975V1.40625Z" fill="#1A1A1A"/>
</g>
</svg>
