<svg width="49" height="48" viewBox="0 0 49 48" fill="none" xmlns="http://www.w3.org/2000/svg">
<g id="SVG" clip-path="url(#clip0_57_6348)">
<path id="Vector" d="M36.6987 34.4436C36.6987 35.9998 35.555 37.3498 33.9144 37.7248L33.6987 37.7717V38.3998C33.6987 38.5739 33.6296 38.7408 33.5065 38.8638C33.3834 38.9869 33.2165 39.0561 33.0425 39.0561C32.8684 39.0561 32.7015 38.9869 32.5784 38.8638C32.4554 38.7408 32.3862 38.5739 32.3862 38.3998V37.7717L32.1612 37.7248C30.53 37.3498 29.3862 35.9998 29.3862 34.4436C29.3862 34.2695 29.4554 34.1026 29.5784 33.9795C29.7015 33.8564 29.8684 33.7873 30.0425 33.7873C30.2165 33.7873 30.3834 33.8564 30.5065 33.9795C30.6296 34.1026 30.6987 34.2695 30.6987 34.4436C30.6987 35.5779 31.7487 36.5061 33.0425 36.5061C34.3362 36.5061 35.3862 35.5779 35.3862 34.4436C35.3862 33.3092 34.3269 32.3811 33.0425 32.3811C31.0269 32.3811 29.3862 30.8623 29.3862 28.9967C29.3862 27.4404 30.53 26.0904 32.1612 25.7154L32.3862 25.6686V24.9561C32.3862 24.782 32.4554 24.6151 32.5784 24.492C32.7015 24.3689 32.8684 24.2998 33.0425 24.2998C33.2165 24.2998 33.3834 24.3689 33.5065 24.492C33.6296 24.6151 33.6987 24.782 33.6987 24.9561V25.6686L33.9144 25.7154C35.555 26.0904 36.6987 27.4404 36.6987 28.9967C36.6987 29.1707 36.6296 29.3376 36.5065 29.4607C36.3834 29.5838 36.2165 29.6529 36.0425 29.6529C35.8684 29.6529 35.7015 29.5838 35.5784 29.4607C35.4554 29.3376 35.3862 29.1707 35.3862 28.9967C35.3862 27.8623 34.3269 26.9342 33.0425 26.9342C31.7581 26.9342 30.6987 27.8623 30.6987 28.9967C30.6987 30.1311 31.7487 31.0686 33.0425 31.0686C35.0581 31.0686 36.6987 32.5779 36.6987 34.4436Z" fill="#1A1A1A"/>
<path id="Vector_2" d="M44.949 31.7811C44.9501 33.729 44.4737 35.6475 43.5615 37.3686C43.5053 37.4737 43.4214 37.5616 43.319 37.6227C43.2166 37.6838 43.0995 37.7159 42.9802 37.7154C42.8726 37.7151 42.7666 37.6894 42.6708 37.6404C42.5181 37.557 42.4041 37.417 42.3532 37.2506C42.3024 37.0841 42.3188 36.9043 42.399 36.7498C43.2145 35.2208 43.6396 33.514 43.6365 31.7811C43.6293 29.7859 43.0622 27.8328 41.9998 26.1439C40.9375 24.4551 39.4224 23.0983 37.6271 22.2279C37.5483 22.1917 37.4777 22.1397 37.4197 22.0752C37.3616 22.0108 37.3174 21.9351 37.2896 21.8529C37.2612 21.7724 37.2491 21.687 37.254 21.6017C37.2588 21.5164 37.2805 21.4329 37.3177 21.3561C37.3708 21.2442 37.4544 21.1496 37.5589 21.0833C37.6634 21.0169 37.7846 20.9815 37.9083 20.9811C38.0091 20.9793 38.1088 21.0018 38.199 21.0467C40.2225 22.0164 41.9303 23.5391 43.1247 25.4387C44.3192 27.3383 44.9517 29.5371 44.949 31.7811Z" fill="#1A1A1A"/>
<path id="Vector_3" d="M35.1612 20.5312C35.1612 20.7053 35.0921 20.8722 34.969 20.9953C34.8459 21.1184 34.679 21.1875 34.505 21.1875H34.4487C34.2747 21.1875 34.1078 21.1184 33.9847 20.9953C33.8616 20.8722 33.7925 20.7053 33.7925 20.5312C33.7925 20.3572 33.8616 20.1903 33.9847 20.0672C34.1078 19.9441 34.2747 19.875 34.4487 19.875H34.5144C34.6868 19.8775 34.8513 19.9477 34.9723 20.0705C35.0934 20.1933 35.1612 20.3588 35.1612 20.5312Z" fill="#1A1A1A"/>
<path id="Vector_4" d="M28.7676 42.2154C28.7132 42.3255 28.6291 42.4182 28.5246 42.4828C28.4202 42.5474 28.2998 42.5815 28.177 42.5811C28.0763 42.5828 27.9766 42.5603 27.8864 42.5154C26.4405 41.8201 25.15 40.84 24.0921 39.6339C23.0343 38.4277 22.2309 37.0204 21.7301 35.4962C21.2293 33.972 21.0415 32.3624 21.1779 30.7639C21.3143 29.1654 21.7721 27.6109 22.5239 26.1936C22.5801 26.0884 22.6639 26.0005 22.7663 25.9394C22.8687 25.8783 22.9859 25.8462 23.1051 25.8467C23.2127 25.847 23.3187 25.8727 23.4145 25.9217C23.5673 26.0051 23.6813 26.1451 23.7321 26.3115C23.7829 26.478 23.7665 26.6578 23.6864 26.8123C23.0164 28.0731 22.6083 29.4563 22.4864 30.8789C22.3645 32.3014 22.5314 33.7339 22.9771 35.0903C23.4229 36.4467 24.1382 37.699 25.0801 38.772C26.022 39.845 27.171 40.7165 28.4582 41.3342C28.5368 41.3713 28.6072 41.4236 28.6654 41.4882C28.7235 41.5527 28.7683 41.6282 28.7971 41.7102C28.8259 41.7921 28.8381 41.879 28.833 41.9657C28.828 42.0525 28.8057 42.1374 28.7676 42.2154Z" fill="#1A1A1A"/>
<path id="Vector_5" d="M31.5799 42.375H31.6361C31.8102 42.375 31.9771 42.4442 32.1002 42.5672C32.2233 42.6903 32.2924 42.8572 32.2924 43.0313C32.2924 43.2053 32.2233 43.3722 32.1002 43.4953C31.9771 43.6184 31.8102 43.6875 31.6361 43.6875H31.5705C31.4843 43.6869 31.3991 43.6693 31.3197 43.6358C31.2404 43.6022 31.1684 43.5534 31.1079 43.492C30.9857 43.368 30.9177 43.2006 30.919 43.0266C30.9202 42.8525 30.9905 42.6861 31.1145 42.5639C31.2384 42.4417 31.4059 42.3738 31.5799 42.375Z" fill="#1A1A1A"/>
<path id="Vector_6" d="M47.8362 26.6531C47.2829 25.0571 46.4722 23.5624 45.4362 22.2281C43.3655 19.5485 40.4852 17.6086 37.2237 16.6969L37.0925 16.6594L37.0362 16.5281C36.9325 16.2783 36.8037 16.0396 36.6519 15.8156L36.3519 15.375H39.3237C40.3929 15.375 41.4182 14.9503 42.1743 14.1943C42.9303 13.4383 43.355 12.4129 43.355 11.3438C43.355 10.2746 42.9303 9.24923 42.1743 8.49323C41.4182 7.73722 40.3929 7.3125 39.3237 7.3125H31.28L31.5894 6.87188C32.0042 6.26619 32.2458 5.55871 32.2881 4.82578C32.3304 4.09284 32.1717 3.36228 31.8291 2.71294C31.4866 2.06359 30.9733 1.5201 30.3445 1.14113C29.7157 0.762154 28.9954 0.562082 28.2612 0.562501H5.29248C4.22333 0.562501 3.19796 0.98722 2.44196 1.74323C1.68595 2.49923 1.26123 3.5246 1.26123 4.59375C1.26123 5.6629 1.68595 6.68827 2.44196 7.44427C3.19796 8.20028 4.22333 8.625 5.29248 8.625H13.3362L13.0269 9.06563C12.5686 9.73696 12.3234 10.5309 12.3234 11.3438C12.3234 12.1566 12.5686 12.9505 13.0269 13.6219L13.3362 14.0625H10.355C9.51813 14.0627 8.70207 14.3232 8.02 14.8081C7.33794 15.293 6.82367 15.9781 6.54855 16.7684C6.27343 17.5588 6.25109 18.4151 6.48462 19.2187C6.71816 20.0223 7.196 20.7333 7.85186 21.2531L8.12373 21.4688L7.85186 21.6844C7.3756 22.0618 6.99084 22.542 6.72635 23.0891C6.46185 23.6362 6.32447 24.2361 6.32447 24.8438C6.32447 25.4514 6.46185 26.0513 6.72635 26.5984C6.99084 27.1455 7.3756 27.6257 7.85186 28.0031L8.12373 28.2188L7.85186 28.4344C7.3756 28.8118 6.99084 29.292 6.72635 29.8391C6.46185 30.3862 6.32447 30.9861 6.32447 31.5938C6.32447 32.2014 6.46185 32.8013 6.72635 33.3484C6.99084 33.8955 7.3756 34.3757 7.85186 34.7531L8.12373 34.9688L7.85186 35.1844C7.196 35.7042 6.71816 36.4152 6.48462 37.2188C6.25109 38.0224 6.27343 38.8787 6.54855 39.6691C6.82367 40.4594 7.33794 41.1445 8.02 41.6294C8.70207 42.1143 9.51813 42.3748 10.355 42.375H21.53L21.605 42.4688C23.046 44.0062 24.78 45.2398 26.705 46.0969C28.6995 46.9849 30.8592 47.4418 33.0425 47.4375C41.6769 47.4375 48.6987 40.4156 48.6987 31.7812C48.7005 30.0356 48.409 28.3021 47.8362 26.6531ZM39.3237 8.625C40.0448 8.625 40.7363 8.91144 41.2462 9.4213C41.756 9.93117 42.0425 10.6227 42.0425 11.3438C42.0425 12.0648 41.756 12.7563 41.2462 13.2662C40.7363 13.7761 40.0448 14.0625 39.3237 14.0625H16.355C15.6339 14.0625 14.9424 13.7761 14.4325 13.2662C13.9227 12.7563 13.6362 12.0648 13.6362 11.3438C13.6362 10.6227 13.9227 9.93117 14.4325 9.4213C14.9424 8.91144 15.6339 8.625 16.355 8.625H39.3237ZM5.29248 7.3125C4.57142 7.3125 3.8799 7.02606 3.37003 6.5162C2.86017 6.00633 2.57373 5.31481 2.57373 4.59375C2.57373 3.87269 2.86017 3.18117 3.37003 2.6713C3.8799 2.16144 4.57142 1.875 5.29248 1.875H28.2612C28.9823 1.875 29.6738 2.16144 30.1837 2.6713C30.6935 3.18117 30.98 3.87269 30.98 4.59375C30.98 5.31481 30.6935 6.00633 30.1837 6.5162C29.6738 7.02606 28.9823 7.3125 28.2612 7.3125H5.29248ZM7.63623 18.0938C7.63623 17.3727 7.92267 16.6812 8.43253 16.1713C8.9424 15.6614 9.63392 15.375 10.355 15.375H33.3237C33.7359 15.3758 34.1427 15.4687 34.5144 15.6469L35.8737 16.3125L34.3644 16.1813C33.9144 16.1438 33.4737 16.125 33.0425 16.125C30.9483 16.1197 28.875 16.5408 26.9487 17.3625C25.0838 18.1505 23.3899 19.2936 21.9612 20.7281L21.8862 20.8125H10.355C9.63392 20.8125 8.9424 20.5261 8.43253 20.0162C7.92267 19.5063 7.63623 18.8148 7.63623 18.0938ZM7.63623 24.8438C7.63623 24.1227 7.92267 23.4312 8.43253 22.9213C8.9424 22.4114 9.63392 22.125 10.355 22.125H20.7144L20.3862 22.575C19.3301 24.0213 18.531 25.6387 18.0237 27.3562L17.9675 27.5625H10.355C9.63392 27.5625 8.9424 27.2761 8.43253 26.7662C7.92267 26.2563 7.63623 25.5648 7.63623 24.8438ZM7.63623 31.5938C7.63623 30.8727 7.92267 30.1812 8.43253 29.6713C8.9424 29.1614 9.63392 28.875 10.355 28.875H17.6581L17.6019 29.2031C17.3346 30.7874 17.3156 32.4036 17.5456 33.9938L17.5925 34.3125H10.355C9.63392 34.3125 8.9424 34.0261 8.43253 33.5162C7.92267 33.0063 7.63623 32.3148 7.63623 31.5938ZM10.355 41.0625C9.63392 41.0625 8.9424 40.7761 8.43253 40.2662C7.92267 39.7563 7.63623 39.0648 7.63623 38.3438C7.63623 37.6227 7.92267 36.9312 8.43253 36.4213C8.9424 35.9114 9.63392 35.625 10.355 35.625H17.8644L17.9206 35.8313C18.3765 37.5437 19.125 39.1644 20.1331 40.6219L20.4331 41.0625H10.355ZM33.0425 46.125C25.13 46.125 18.6987 39.6937 18.6987 31.7812C18.6987 23.8687 25.13 17.4375 33.0425 17.4375C40.955 17.4375 47.3862 23.8687 47.3862 31.7812C47.3862 39.6937 40.955 46.125 33.0425 46.125Z" fill="#1A1A1A"/>
</g>
<defs>
<clipPath id="clip0_57_6348">
<rect width="48" height="48" fill="white" transform="translate(0.97998)"/>
</clipPath>
</defs>
</svg>
