<svg width="49" height="48" viewBox="0 0 49 48" fill="none" xmlns="http://www.w3.org/2000/svg">
<g id="SVG">
<path id="Vector" d="M35.2925 38.7188C35.6549 38.7188 35.9487 38.4249 35.9487 38.0625C35.9487 37.7001 35.6549 37.4062 35.2925 37.4062C34.93 37.4062 34.6362 37.7001 34.6362 38.0625C34.6362 38.4249 34.93 38.7188 35.2925 38.7188Z" fill="#1A1A1A"/>
<path id="Vector_2" d="M37.5144 34.3594L33.0519 32.8781L32.9487 32.8406L32.8925 32.7375L31.2894 29.5313L31.205 29.3531L31.3456 29.2125C32.7602 27.7678 33.7019 25.9269 34.0456 23.9344L34.2425 22.7344L34.2894 22.5H36.23C36.5624 22.5 36.8915 22.4345 37.1986 22.3073C37.5058 22.1801 37.7848 21.9937 38.0198 21.7586C38.2549 21.5236 38.4413 21.2445 38.5686 20.9374C38.6958 20.6303 38.7612 20.3012 38.7612 19.9688V14.0625C38.7612 6.45939 32.5831 0.281263 24.98 0.281263C23.1695 0.278795 21.3763 0.633572 19.7032 1.32527C18.0301 2.01697 16.5099 3.03199 15.2297 4.31219C13.9495 5.59239 12.9344 7.11261 12.2427 8.78574C11.551 10.4589 11.1963 12.252 11.1987 14.0625V19.9688C11.2006 20.4923 11.3635 21.0025 11.6654 21.4302C11.9673 21.8579 12.3936 22.1823 12.8862 22.3594L13.0737 22.425V23.7188C13.0737 24.3901 13.3404 25.0339 13.8151 25.5086C14.2898 25.9833 14.9337 26.25 15.605 26.25H16.6081L16.6831 26.4188C17.0763 27.2756 17.5909 28.0713 18.2112 28.7813C18.3331 28.9219 18.4644 29.0625 18.6144 29.2125L18.755 29.3531L18.6706 29.5406L17.0675 32.7375L17.0112 32.8406L16.9081 32.8781L12.4456 34.3594C7.38311 36.0469 3.69873 41.3906 3.69873 47.0625C3.69873 47.2366 3.76787 47.4035 3.89094 47.5266C4.01401 47.6496 4.18093 47.7188 4.35498 47.7188H45.605C45.779 47.7188 45.9459 47.6496 46.069 47.5266C46.1921 47.4035 46.2612 47.2366 46.2612 47.0625C46.2612 41.3906 42.5862 36.0469 37.5144 34.3594ZM31.7112 33.3188L31.7675 33.4219L31.73 33.5344C31.1462 35.219 30.438 36.8579 29.6112 38.4375L29.4331 38.7844L29.1706 38.5125L25.9831 35.325L25.7956 35.1375L25.9831 34.9313L29.9862 30.6938L30.2581 30.4031L30.4456 30.7688L31.7112 33.3188ZM25.0644 33.9938L24.8581 34.2L24.6612 34.0031L22.8237 32.1656L22.1581 31.5L23.0862 31.6969C23.7091 31.8273 24.3437 31.8932 24.98 31.8938C25.4794 31.8951 25.978 31.8544 26.4706 31.7719L27.2862 31.6406L26.7144 32.2406L25.0644 33.9938ZM37.4487 19.9688C37.4487 20.292 37.3203 20.602 37.0918 20.8305C36.8632 21.0591 36.5532 21.1875 36.23 21.1875H34.4769L34.5237 20.8688C34.7581 19.0313 34.9175 17.0531 34.9831 15.15V14.7188H37.4487V19.9688ZM12.5487 13.1063C13.0362 6.64689 18.4925 1.59376 24.98 1.59376C31.4675 1.59376 36.9144 6.64689 37.4112 13.1063L37.4394 13.4063H35.0112V13.125C34.9793 10.7069 33.9981 8.39829 32.2793 6.69708C30.5606 4.99588 28.242 4.03843 25.8237 4.03126H24.1362C21.7179 4.03843 19.3994 4.99588 17.6806 6.69708C15.9619 8.39829 14.9807 10.7069 14.9487 13.125V13.4063H12.5206L12.5487 13.1063ZM13.73 21.1875C13.4067 21.1875 13.0968 21.0591 12.8682 20.8305C12.6396 20.602 12.5112 20.292 12.5112 19.9688V14.7188H14.9675V14.9906C14.9675 15.0844 14.9769 15.1875 14.9769 15.2813V15.3C15.0425 17.1469 15.2019 19.0781 15.4269 20.8688L15.4737 21.1875H13.73ZM15.605 24.9375C15.2817 24.9375 14.9718 24.8091 14.7432 24.5805C14.5146 24.352 14.3862 24.042 14.3862 23.7188V22.5H15.6706L15.7175 22.7344L15.9144 23.9344C15.9519 24.1406 15.9987 24.3656 16.0456 24.5906L16.13 24.9375H15.605ZM16.3081 12.4313C16.4991 10.4885 17.4066 8.68637 18.8538 7.37613C20.3009 6.0659 22.1841 5.34138 24.1362 5.34376H25.8237C27.9165 5.35121 29.9209 6.18843 31.3972 7.67177C32.8735 9.15512 33.7012 11.1635 33.6987 13.2563C33.6987 13.5563 33.6987 13.8094 33.6894 14.0438V14.3625L33.3706 14.325L32.1987 14.1656C28.9337 13.6902 25.909 12.1746 23.5737 9.84376C23.4476 9.72298 23.2796 9.65578 23.105 9.65626C21.9007 9.66207 20.7124 9.93206 19.6239 10.4472C18.5353 10.9623 17.5731 11.71 16.805 12.6375L16.205 13.3594L16.3081 12.4313ZM18.305 26.6719L18.0425 26.25H20.6487L20.7144 26.4375C20.8914 26.9302 21.2158 27.3564 21.6435 27.6583C22.0712 27.9602 22.5815 28.1231 23.105 28.125H24.98C25.6513 28.125 26.2951 27.8583 26.7698 27.3836C27.2445 26.9089 27.5112 26.2651 27.5112 25.5938C27.5112 24.9224 27.2445 24.2786 26.7698 23.8039C26.2951 23.3292 25.6513 23.0625 24.98 23.0625H23.105C22.5811 23.063 22.0703 23.2254 21.6423 23.5275C21.2144 23.8296 20.8903 24.2566 20.7144 24.75L20.6487 24.9375H17.5081L17.4519 24.7406C16.955 23.1094 16.43 18.3844 16.3081 15.5719V15.4688L16.3644 15.3938L17.63 13.7063C18.2293 12.9089 18.9951 12.2517 19.8743 11.7806C20.7535 11.3094 21.7248 11.0356 22.7206 10.9781H22.8425L22.9269 11.0625C25.4263 13.4356 28.6002 14.9751 32.0112 15.4688L33.3894 15.6656L33.6425 15.7031V15.9563C33.5487 17.925 33.3612 19.9125 33.0894 21.7219C33.0331 22.125 32.9769 22.4344 32.8925 22.9313C32.855 23.1563 32.8175 23.4094 32.7612 23.7281C32.2362 26.8969 29.8175 29.625 26.9019 30.3563C25.646 30.6687 24.3327 30.6687 23.0769 30.3563C21.1456 29.8594 19.4019 28.5281 18.305 26.6719ZM21.8862 25.5938C21.8862 25.2705 22.0146 24.9605 22.2432 24.732C22.4718 24.5034 22.7817 24.375 23.105 24.375H24.98C25.3032 24.375 25.6132 24.5034 25.8418 24.732C26.0703 24.9605 26.1987 25.2705 26.1987 25.5938C26.1987 25.917 26.0703 26.227 25.8418 26.4555C25.6132 26.6841 25.3032 26.8125 24.98 26.8125H23.105C22.7817 26.8125 22.4718 26.6841 22.2432 26.4555C22.0146 26.227 21.8862 25.917 21.8862 25.5938ZM18.2394 33.3188L19.3644 31.0781L19.5331 30.7313L23.9581 35.1563L23.7706 35.3531L20.7987 38.5031L20.5269 38.7844L20.3487 38.4375C19.522 36.8579 18.8138 35.219 18.23 33.5344L18.1925 33.4219L18.2394 33.3188ZM5.02998 46.4063L5.04873 46.1063C5.43311 41.325 8.64873 37.0125 12.8675 35.6063L16.805 34.2938L17.0675 34.2L17.1612 34.4625C17.876 36.4399 18.7573 38.353 19.7956 40.1813L19.8519 40.2375V40.2844C20.6103 41.6096 21.4493 42.887 22.3644 44.1094H22.3737L23.5269 45.9563L23.7987 46.3875L5.02998 46.4063ZM24.98 45.825L24.7456 45.4406L23.4706 43.3969L23.4331 43.35C22.6691 42.3283 21.9588 41.2674 21.305 40.1719L21.2019 39.9844L21.3425 39.8344L24.6894 36.3L24.8862 36.0844L28.6175 39.8156L28.7675 39.9656L28.655 40.1531C28.0035 41.2562 27.2931 42.3233 26.5269 43.35H26.5175C26.4987 43.3688 26.4894 43.3781 26.2456 43.7906L25.2144 45.4313L24.98 45.825ZM26.1612 46.4063L26.4331 45.975L27.5862 44.1281H27.5956C28.5358 42.8756 29.3939 41.5635 30.1644 40.2H30.1737C31.2072 38.3771 32.0853 36.4703 32.7987 34.5L32.8925 34.2375L33.155 34.3313L37.1019 35.6438C41.3112 37.05 44.5269 41.3625 44.9112 46.1438L44.93 46.4438L26.1612 46.4063Z" fill="#1A1A1A"/>
<path id="Vector_3" d="M41.2646 43.3408C41.1744 43.3856 41.0747 43.4082 40.974 43.4064C40.8512 43.4068 40.7307 43.3728 40.6263 43.3081C40.5219 43.2435 40.4377 43.1509 40.3833 43.0408C39.8622 41.9966 39.1124 41.0833 38.1896 40.3689C38.1203 40.3173 38.0621 40.2523 38.0183 40.1778C37.9746 40.1034 37.9462 40.0209 37.9348 39.9352C37.9235 39.8496 37.9294 39.7626 37.9522 39.6793C37.975 39.5959 38.0143 39.518 38.0677 39.4502C38.175 39.3144 38.3309 39.2258 38.5024 39.203C38.6739 39.1803 38.8475 39.2252 38.9865 39.3283C40.069 40.1662 40.95 41.2362 41.5646 42.4595C41.6397 42.6165 41.6503 42.7966 41.5943 42.9613C41.5382 43.126 41.4199 43.2622 41.2646 43.3408Z" fill="#1A1A1A"/>
</g>
</svg>
