<svg width="24" height="24" viewBox="0 0 24 24" fill="none" xmlns="http://www.w3.org/2000/svg">
<g clip-path="url(#clip0_126_3082)">
<path d="M0.299805 12.0551C0.299805 11.847 0.364832 11.6779 0.494888 11.5478C0.624944 11.4178 0.794016 11.3528 1.0021 11.3528H18.2475L13.6435 6.7488C13.4874 6.59273 13.4094 6.41065 13.4094 6.20256C13.4094 5.99447 13.4874 5.8254 13.6435 5.69535C13.7996 5.56529 13.9816 5.50026 14.1897 5.50026C14.3978 5.50026 14.5799 5.55229 14.736 5.65633L20.5885 11.5088C20.6925 11.6649 20.7445 11.847 20.7445 12.0551C20.7445 12.2632 20.6925 12.4452 20.5885 12.6013L14.736 18.4538C14.5799 18.5578 14.3978 18.6099 14.1897 18.6099C13.9816 18.6099 13.7996 18.5448 13.6435 18.4148C13.4874 18.2847 13.4094 18.1157 13.4094 17.9076C13.4094 17.6995 13.4874 17.5174 13.6435 17.3613L18.2475 12.7574H1.0021C0.794016 12.7574 0.624944 12.6923 0.494888 12.5623C0.364832 12.4322 0.299805 12.2632 0.299805 12.0551Z" fill="white"/>
</g>
<defs>
<clipPath id="clip0_126_3082">
<rect width="23.41" height="23.41" fill="white" transform="matrix(1 0 0 -1 0.299805 23.76)"/>
</clipPath>
</defs>
</svg>
