<svg width="60" height="60" viewBox="0 0 60 60" fill="none" xmlns="http://www.w3.org/2000/svg">
<g id="SVG" clip-path="url(#clip0_108_2173)">
<g id="Group">
<path id="Vector" d="M32.8247 35.2898C32.8254 35.2896 32.826 35.2894 32.8267 35.2891C32.9707 35.2478 33.106 35.1649 33.2046 35.0662C33.938 34.3329 49.2314 19.0393 49.971 18.2997C50.6267 17.6441 50.8368 16.7101 50.6045 15.8746H53.6015C54.087 15.8746 54.4804 15.481 54.4804 14.9956C54.4804 14.5103 54.087 14.1167 53.6015 14.1167H49.3005L48.0647 12.8811C47.0963 11.9127 45.5207 11.9127 44.5523 12.8811L43.3166 14.1167H26.9746C26.4892 14.1167 26.0957 14.5103 26.0957 14.9956C26.0957 15.0149 26.0965 35.3587 26.0965 35.3587C26.097 35.7272 26.2396 36.0846 26.5036 36.3485C26.8634 36.7084 27.396 36.842 27.8918 36.7001L32.8247 35.2898ZM32.5832 33.2018L29.6505 30.269L43.6809 16.2387L46.6136 19.1714L32.5832 33.2018ZM41.5588 15.8747L27.8535 29.5801V15.8747H41.5588ZM28.0156 34.8365L28.8419 31.9465L30.9055 34.0101C29.8272 34.3187 29.0808 34.532 28.0156 34.8365ZM48.728 17.0569L47.8564 17.9285L44.9236 14.9958L45.7953 14.1241C46.0786 13.8405 46.5381 13.8404 46.8216 14.1241C48.7073 16.0098 47.9386 15.241 48.728 16.0304C49.0118 16.3141 49.0117 16.7731 48.728 17.0569Z" fill="#C3921C"/>
<path id="Vector_2" d="M59.1211 39.4368C59.6066 39.4368 60 39.0432 60 38.5579V11.1472C60 9.4507 58.6198 8.07059 56.9232 8.07059H55.0351V5.51121C55.0351 3.81469 53.655 2.43457 51.9585 2.43457H3.07664C1.35773 2.43445 -0.00011718 3.83602 7.58471e-09 5.51121V11.9112C7.58471e-09 12.3966 0.393516 12.7901 0.878906 12.7901C1.3643 12.7901 1.75781 12.3966 1.75781 11.9112V5.51109C1.7577 4.7652 2.36273 4.19227 3.07664 4.19227H51.9585C52.6856 4.19227 53.2773 4.78395 53.2773 5.51109V8.07047C47.7091 8.07047 13.7659 8.07047 8.04164 8.07047C6.34512 8.07047 4.965 9.4507 4.965 11.1471V45.0892H3.07664C2.34938 45.0892 1.75781 44.4975 1.75781 43.7704V16.0127C1.75781 15.5273 1.3643 15.1338 0.878906 15.1338C0.393516 15.1338 7.5847e-09 15.5273 7.5847e-09 16.0127V43.7704C7.5847e-09 45.4669 1.38023 46.847 3.07664 46.847H4.96488V49.4064C4.96488 51.1029 6.34512 52.483 8.04152 52.483H14.1963V55.8664C14.1963 56.8034 14.9586 57.5657 15.8955 57.5657H22.1095C23.0464 57.5657 23.8088 56.8034 23.8088 55.8664V52.483H56.9231C58.6196 52.483 59.9999 51.1028 59.9999 49.4064V42.6594C59.9999 42.174 59.6065 41.7805 59.121 41.7805C58.6355 41.7805 58.2421 42.174 58.2421 42.6594V49.4064C58.2421 50.1336 57.6504 50.7252 56.9231 50.7252H23.8089V20.767C23.8089 19.8301 23.0466 19.0678 22.1096 19.0678H15.8957C14.9588 19.0678 14.1964 19.8301 14.1964 20.767V50.7253H8.04164C7.31438 50.7253 6.72281 50.1336 6.72281 49.4065C6.72281 48.6136 6.72281 11.942 6.72281 11.1473C6.72281 10.4201 7.31449 9.82852 8.04164 9.82852H56.9234C57.6506 9.82852 58.2423 10.4202 58.2423 11.1473V38.558C58.2422 39.0432 58.6356 39.4368 59.1211 39.4368ZM15.9543 20.8256H22.0511V24.1505H20.7422C20.2568 24.1505 19.8633 24.544 19.8633 25.0294C19.8633 25.5148 20.2568 25.9083 20.7422 25.9083H22.0511V30.7942H20.7422C20.2568 30.7942 19.8633 31.1877 19.8633 31.6731C19.8633 32.1585 20.2568 32.552 20.7422 32.552H22.0511V37.4379H20.7422C20.2568 37.4379 19.8633 37.8314 19.8633 38.3168C19.8633 38.8022 20.2568 39.1957 20.7422 39.1957H22.0511V44.0816H20.7422C20.2568 44.0816 19.8633 44.4751 19.8633 44.9605C19.8633 45.4459 20.2568 45.8394 20.7422 45.8394H22.0511V50.7253H20.7422C20.2568 50.7253 19.8633 51.1188 19.8633 51.6042C19.8633 52.0896 20.2568 52.4831 20.7422 52.4831H22.0511V55.808H15.9543V51.6042C15.9543 50.4926 15.9543 22.1435 15.9543 20.8256Z" fill="#C3921C"/>
</g>
</g>
<defs>
<clipPath id="clip0_108_2173">
<rect width="60" height="60" fill="white"/>
</clipPath>
</defs>
</svg>
