<svg width="60" height="60" viewBox="0 0 60 60" fill="none" xmlns="http://www.w3.org/2000/svg">
<g id="SVG">
<g id="Group">
<path id="Vector" d="M56.5363 0H34.8769C33.8413 0 32.9612 0.706055 32.7368 1.71691L30.9148 9.92062C30.6687 11.0284 31.3257 12.1576 32.4103 12.4913L38.1666 14.2622L33.5659 27.9063L26.6691 26.6283C26.3315 26.5655 25.9965 26.5873 25.6864 26.6784L25.3383 26.3321C24.994 25.9896 24.4375 25.9911 24.0954 26.3352C23.753 26.6794 23.7544 27.2359 24.0985 27.5781L24.3579 27.8363C24.3199 27.9203 24.2853 28.0063 24.258 28.0968L21.6784 36.6374H10.9872C10.7801 36.6374 10.6009 36.49 10.5608 36.2869L5.08116 8.46984C5.66663 8.65535 6.47241 7.87383 6.0196 7.14164H28.4724C28.9579 7.14164 29.3513 6.74824 29.3513 6.26273C29.3513 5.77723 28.9579 5.38383 28.4724 5.38383H5.34788C4.68975 5.38383 4.07253 5.67539 3.65452 6.18375C3.23663 6.69211 3.06975 7.35398 3.19702 7.99969L8.83632 36.6267C9.03823 37.6514 9.9428 38.3953 10.9872 38.3953H21.1476L15.446 57.2722C15.2505 57.9197 15.3696 58.6025 15.7728 59.1455C16.176 59.6885 16.7952 59.9999 17.4715 59.9999H53.9125C54.555 59.9999 55.1629 59.7195 55.5799 59.2309C55.9971 58.7421 56.1784 58.0978 56.0775 57.4631L55.472 53.6571C55.3956 53.1778 54.9457 52.8504 54.4658 52.9271C53.9864 53.0034 53.6597 53.4539 53.7359 53.9333L54.3414 57.7393C54.3688 57.9116 54.2914 58.0328 54.2428 58.0896C54.1942 58.1466 54.0867 58.2421 53.9124 58.2421H17.4715C17.3148 58.2421 17.2241 58.1515 17.184 58.0976C17.144 58.0436 17.0835 57.9305 17.1287 57.7806L22.9838 38.3953H30.3098C31.2514 38.3953 32.0862 37.7958 32.3871 36.9035L34.7445 29.9123L50.0951 32.7568C50.267 32.7979 50.3953 32.9358 50.4231 33.1111L53.0862 49.8496C53.1625 50.329 53.613 50.6553 54.0924 50.5795C54.5718 50.5032 54.8985 50.0528 54.8223 49.5734L52.1592 32.8349C52.0159 31.9348 51.3477 31.2288 50.4569 31.0365C50.4485 31.0346 50.44 31.033 50.4315 31.0315L35.3119 28.2298L39.8474 14.7791L55.8918 19.7152C56.1069 19.7812 56.326 19.8139 56.543 19.8139C57.0035 19.8138 57.4546 19.667 57.839 19.383C58.4044 18.9655 58.7288 18.3227 58.7288 17.6197V2.19223C58.7287 0.983438 57.7451 0 56.5363 0ZM30.7215 36.3418C30.6618 36.5187 30.4964 36.6375 30.3098 36.6375H23.5148L25.9409 28.6051C25.9937 28.4302 26.1693 28.3237 26.3489 28.3566L32.9986 29.5888L30.7215 36.3418ZM32.9273 10.8111C32.7123 10.7452 32.5821 10.5212 32.6309 10.3017L33.3327 7.14164H39.9625C40.1564 7.14164 40.2668 7.25508 40.3155 7.3227C40.364 7.39031 40.4362 7.53105 40.3743 7.71492L38.7285 12.5959L32.9273 10.8111ZM56.9708 17.6197C56.9708 17.8105 56.8605 17.9204 56.7945 17.9691C56.7286 18.0178 56.5914 18.0909 56.4086 18.0349L40.4092 13.1128L42.04 8.27648C42.2649 7.6091 42.154 6.86918 41.7433 6.29719C41.3324 5.7252 40.6668 5.38371 39.9626 5.38371H33.7232L34.4529 2.09789C34.4974 1.8975 34.6718 1.7577 34.877 1.7577H56.5363C56.776 1.7577 56.9708 1.95258 56.9708 2.19211V17.6197Z" fill="#C3921C"/>
<path id="Vector_2" d="M8.94864 44.1822C8.60809 43.3599 7.81309 42.8286 6.92317 42.8286H4.45169C3.37016 42.8286 2.45997 43.6036 2.28747 44.6713L1.29969 50.7835C1.19704 51.4189 1.37739 52.0644 1.79469 52.5544C2.212 53.0446 2.82032 53.3256 3.46391 53.3256H9.45419C10.1879 53.3256 10.8692 52.9615 11.2769 52.3514C11.6846 51.7413 11.7603 50.9724 11.4797 50.2946L8.94864 44.1822ZM9.81536 51.3747C9.76719 51.4468 9.65622 51.5678 9.45419 51.5678H3.46391C3.2893 51.5678 3.18172 51.472 3.13321 51.4148C3.08458 51.3579 3.00723 51.2364 3.03512 51.064L4.0229 44.9516C4.057 44.7399 4.23735 44.5864 4.45169 44.5864H6.92317C7.09954 44.5864 7.25715 44.6917 7.32454 44.8547L9.85567 50.9671C9.9329 51.1539 9.86352 51.3027 9.81536 51.3747Z" fill="#C3921C"/>
<path id="Vector_3" d="M20.0254 22.2854C19.683 22.6296 19.6844 23.186 20.0285 23.5283L20.9423 24.4376C21.1139 24.6082 21.3381 24.6935 21.5622 24.6935C21.7879 24.6935 22.0136 24.6071 22.1852 24.4345C22.5276 24.0903 22.5262 23.5338 22.1822 23.1916L21.2683 22.2824C20.9242 21.9398 20.3676 21.9412 20.0254 22.2854Z" fill="#C3921C"/>
<path id="Vector_4" d="M11.8838 14.1853C11.5414 14.5295 11.5428 15.086 11.8869 15.4282L12.8007 16.3375C12.9723 16.5081 13.1965 16.5934 13.4206 16.5934C13.6463 16.5934 13.872 16.507 14.0436 16.3344C14.386 15.9902 14.3846 15.4337 14.0406 15.0915L13.1267 14.1823C12.7826 13.8397 12.226 13.8411 11.8838 14.1853Z" fill="#C3921C"/>
<path id="Vector_5" d="M7.81343 10.1354C7.47112 10.4796 7.47253 11.0361 7.81659 11.3784L8.73042 12.2876C8.90198 12.4581 9.12616 12.5434 9.35034 12.5434C9.57604 12.5434 9.80175 12.457 9.97343 12.2844C10.3157 11.9402 10.3143 11.3837 9.97026 11.0414L9.05643 10.1323C8.71214 9.78997 8.15573 9.79137 7.81343 10.1354Z" fill="#C3921C"/>
<path id="Vector_6" d="M15.9541 18.2355C15.6117 18.5797 15.6132 19.1362 15.9572 19.4785L16.871 20.3877C17.0426 20.5582 17.2668 20.6435 17.491 20.6435C17.7167 20.6435 17.9424 20.5571 18.1141 20.3845C18.4564 20.0403 18.4549 19.4838 18.1109 19.1415L17.1971 18.2324C16.8528 17.8901 16.2964 17.8915 15.9541 18.2355Z" fill="#C3921C"/>
</g>
</g>
</svg>
