<svg width="17" height="16" viewBox="0 0 17 16" fill="none" xmlns="http://www.w3.org/2000/svg">
<g id="Icon" clip-path="url(#clip0_108_1673)">
<path id="Vector" d="M1.95508 12.4688L9.95508 4.46875C10.0488 4.38542 10.1113 4.28646 10.1426 4.17188C10.1738 4.05729 10.1738 3.9401 10.1426 3.82031C10.1113 3.70052 10.054 3.59896 9.9707 3.51562C9.88737 3.43229 9.78581 3.375 9.66602 3.34375C9.54622 3.3125 9.42904 3.3125 9.31445 3.34375C9.19987 3.375 9.10091 3.4375 9.01758 3.53125L1.01758 11.5312C0.892578 11.6667 0.830078 11.8229 0.830078 12C0.830078 12.1771 0.895182 12.3307 1.02539 12.4609C1.1556 12.5911 1.30924 12.6562 1.48633 12.6562C1.66341 12.6562 1.81966 12.5938 1.95508 12.4688ZM8.81445 10C8.82487 10.1875 8.89258 10.3438 9.01758 10.4688C9.14258 10.5938 9.29883 10.6562 9.48633 10.6562C9.67383 10.6562 9.83008 10.5938 9.95508 10.4688C10.0801 10.3438 10.1478 10.1875 10.1582 10V4C10.1478 3.8125 10.0801 3.65625 9.95508 3.53125C9.83008 3.40625 9.67383 3.33854 9.48633 3.32812H3.48633C3.29883 3.33854 3.14258 3.40625 3.01758 3.53125C2.89258 3.65625 2.83008 3.8125 2.83008 4C2.83008 4.1875 2.89258 4.34375 3.01758 4.46875C3.14258 4.59375 3.29883 4.66146 3.48633 4.67188H8.81445V10Z" fill="#C3921C"/>
</g>
<defs>
<clipPath id="clip0_108_1673">
<rect width="16" height="16" fill="white" transform="matrix(1 0 0 -1 0.830078 16)"/>
</clipPath>
</defs>
</svg>
