<svg width="61" height="60" viewBox="0 0 61 60" fill="none" xmlns="http://www.w3.org/2000/svg">
<g id="SVG" clip-path="url(#clip0_108_1793)">
<g id="Group">
<g id="Page-1_41_">
<g id="_x30_42---Reinforced-Concrete">
<path id="Shape_111_" d="M57.6602 10C59.3135 9.99183 60.652 8.65349 60.6602 7.00001C60.6602 5.34318 59.317 4.00001 57.6602 4.00001H56.6602V3.00005C56.6661 2.20834 56.3508 1.44813 55.7862 0.893034C55.229 0.317759 54.4611 -0.00476935 53.6602 5.3317e-05C52.0034 5.3317e-05 50.6602 1.34322 50.6602 3.00005V4.00001H46.6602V3.00005C46.6661 2.20834 46.3508 1.44813 45.7863 0.893034C45.2291 0.317759 44.4611 -0.00476935 43.6602 5.3317e-05C42.0034 5.3317e-05 40.6603 1.34322 40.6603 3.00005V4.00001H36.6603V3.00005C36.6662 2.20834 36.3509 1.44813 35.7863 0.893034C35.2291 0.317759 34.4612 -0.00476935 33.6603 5.3317e-05C32.0035 5.3317e-05 30.6603 1.34322 30.6603 3.00005V4.00001H27.3512C27.3512 1.79084 25.5603 5.3317e-05 23.3512 5.3317e-05H5.66018C2.90014 0.00330124 0.663503 2.23994 0.660156 4.99998V54.9999C0.663503 57.76 2.90014 59.9966 5.66018 59.9999H55.6601C58.4202 59.9966 60.6568 57.76 60.6602 54.9999V37.31C60.6602 35.1008 58.8693 33.31 56.6602 33.31V30H57.6602C59.3135 29.9918 60.652 28.6535 60.6602 27C60.6602 25.3432 59.317 24 57.6602 24H56.6602V20.0001H57.6602C59.3135 19.9919 60.652 18.6535 60.6602 17.0001C60.6602 15.3432 59.317 14.0001 57.6602 14.0001H56.6602V10.0001H57.6602V10ZM57.6602 6.00004C58.2124 6.00004 58.6601 6.44776 58.6601 7.00001C58.6608 7.26968 58.5501 7.52775 58.3541 7.71298C58.1711 7.8984 57.9207 8.00194 57.6602 7.99997H56.6602V6.00004H57.6602ZM52.6601 3.00005C52.6601 2.4478 53.1079 2.00008 53.6601 2.00008C53.9295 1.99969 54.187 2.11041 54.3721 2.30608C54.5587 2.48845 54.6627 2.73913 54.6601 3.00005V33.716C54.3111 33.828 53.982 33.943 53.6601 34.057C53.3381 34.171 53.0031 34.288 52.6601 34.396V3.00005ZM44.6601 10V14H42.6601V10H44.6601ZM50.6601 10V14H46.6601V10H50.6601ZM36.6601 28V25.9999H50.6601V28H36.6601ZM50.6601 16V18H36.6601V16H50.6601ZM42.6601 24V20.0001H44.6601V24H42.6601ZM36.6601 24V20.0001H40.6601V24H36.6601ZM46.6601 20H50.6601V23.9999H46.6601V20ZM40.6602 14H36.6602V10H40.6602V14ZM36.6601 30H40.6601V33.357C39.4529 33.1032 38.2215 32.9836 36.988 33C36.875 33 36.77 33.013 36.66 33.017V30H36.6601ZM42.6601 30H44.6601V34.588C44.0601 34.432 43.5282 34.247 42.9891 34.057L42.6601 33.9421V30ZM46.6601 30H50.6601V34.8489C49.886 34.9547 49.1053 35.005 48.3241 34.9999C47.6991 34.9999 47.154 34.973 46.66 34.9279V30H46.6601ZM42.6601 3.00005C42.6601 2.4478 43.1078 2.00008 43.6601 2.00008C43.9294 1.99969 44.187 2.11041 44.372 2.30608C44.5586 2.48845 44.6627 2.73913 44.66 3.00005V4.00001H42.66V3.00005H42.6601ZM50.6601 6.00004V8.00007H36.6601V6.00004H50.6601ZM32.6601 3.00005C32.6601 2.4478 33.1079 2.00008 33.6601 2.00008C33.9295 1.99969 34.187 2.11041 34.3721 2.30608C34.5587 2.48845 34.6627 2.73913 34.6601 3.00005V33.305C33.9736 33.4822 33.3043 33.7201 32.66 34.016V3.00005H32.6601ZM27.3051 20H30.6601V23.9999H27.6431C27.6431 23.8869 27.6601 23.779 27.6601 23.6639C27.6765 22.4333 27.5575 21.2046 27.3051 20ZM30.6601 14H25.7331C25.6871 13.505 25.6601 12.957 25.6601 12.328C25.6553 11.5495 25.7054 10.7714 25.8101 10H30.6601V14ZM30.6601 16V18H26.7211C26.6811 17.888 26.642 17.774 26.6031 17.663C26.4141 17.127 26.2291 16.599 26.074 16H30.6601ZM27.3541 25.9999H30.6601V28H26.6412C26.9373 27.3556 27.1759 26.6863 27.3541 25.9999ZM25.6061 30H30.6601V35.051C28.3961 36.294 27.3601 36.705 25.6601 35C23.96 33.2951 24.3651 32.2609 25.6061 30ZM30.6601 7.99997H26.2602C26.3681 7.65599 26.4842 7.32795 26.6012 7.00001C26.7182 6.67197 26.8292 6.35102 26.9402 6.00004H30.6601V7.99997ZM58.6601 37.31V54.9999C58.6601 56.6568 57.317 57.9999 55.6601 57.9999H5.66018C4.00335 57.9999 2.66019 56.6568 2.66019 54.9999V4.99998C2.66019 3.34315 4.00335 1.99998 5.66018 1.99998H23.3501C23.9633 2.00067 24.5424 2.28196 24.9221 2.76334C25.3018 3.24482 25.4403 3.87354 25.2982 4.46998C25.138 5.09998 24.9441 5.72082 24.7172 6.32995C23.9736 8.24091 23.6144 10.2799 23.6602 12.3299C23.6143 14.38 23.9735 16.419 24.7172 18.3299C25.3834 20.0274 25.704 21.8409 25.6602 23.6639C25.5617 25.5265 24.9664 27.3289 23.9362 28.8839C22.7363 31.0639 21.3692 33.5359 24.2453 36.4139C27.1213 39.2918 29.5912 37.9279 31.7713 36.7239C33.3253 35.6938 35.1266 35.0985 36.9882 34.9999C38.8119 34.9561 40.626 35.2768 42.3243 35.9429C44.2351 36.6869 46.2741 37.0461 48.3243 36.9999C50.3745 37.0461 52.4135 36.6865 54.3242 35.9418C54.9351 35.715 55.5577 35.5211 56.1892 35.3608C56.7859 35.219 57.4147 35.3579 57.8962 35.7377C58.3777 36.1175 58.659 36.6967 58.6601 37.31ZM57.6602 25.9999C58.2124 25.9999 58.6601 26.4477 58.6601 26.9999C58.6608 27.2696 58.5501 27.5276 58.3541 27.7129C58.1711 27.8983 57.9207 28.0018 57.6602 27.9999H56.6602V25.9998H57.6602V25.9999ZM57.6602 16C58.2124 16 58.6601 16.4477 58.6601 17C58.6608 17.2696 58.5501 17.5277 58.3541 17.7129C58.1711 17.8984 57.9207 18.0019 57.6602 17.9999H56.6602V15.9999L57.6602 16Z" fill="#C3921C"/>
<path id="Shape_110_" d="M8.66015 49C7.00332 49 5.66016 50.3432 5.66016 52C5.66016 53.6568 7.00332 55 8.66015 55C10.317 55 11.6601 53.6568 11.6601 52C11.6601 50.3432 10.317 49 8.66015 49ZM8.66015 53C8.10791 53 7.66019 52.5522 7.66019 52C7.66019 51.4478 8.10791 51 8.66015 51C9.2124 51 9.66012 51.4478 9.66012 52C9.66012 52.5523 9.2124 53 8.66015 53Z" fill="#C3921C"/>
<path id="Shape_109_" d="M18.6602 5C17.0033 5 15.6602 6.34316 15.6602 8C15.6602 9.65683 17.0033 11 18.6602 11C20.317 11 21.6601 9.65683 21.6601 8C21.6601 6.34316 20.3171 5 18.6602 5ZM18.6602 9.00006C18.1079 9.00006 17.6602 8.55234 17.6602 8.00009C17.6602 7.44785 18.1079 7.00013 18.6602 7.00013C19.2124 7.00013 19.6601 7.44785 19.6601 8.00009C19.6602 8.55234 19.2125 9.00006 18.6602 9.00006Z" fill="#C3921C"/>
<g id="Group_2">
<path id="Oval" d="M9.66012 46.9999C10.2124 46.9999 10.6601 46.5522 10.6601 46C10.6601 45.4477 10.2124 45 9.66012 45C9.10786 45 8.66016 45.4477 8.66016 46C8.66016 46.5522 9.10786 46.9999 9.66012 46.9999Z" fill="#C3921C"/>
<path id="Oval_1_" d="M16.6601 14.9999C17.2124 14.9999 17.6601 14.5522 17.6601 14C17.6601 13.4477 17.2124 13 16.6601 13C16.1079 13 15.6602 13.4477 15.6602 14C15.6602 14.5522 16.1079 14.9999 16.6601 14.9999Z" fill="#C3921C"/>
<path id="Oval_2_" d="M54.6601 40.9999C55.2124 40.9999 55.6601 40.5522 55.6601 40C55.6601 39.4477 55.2124 39 54.6601 39C54.1079 39 53.6602 39.4477 53.6602 40C53.6602 40.5522 54.1079 40.9999 54.6601 40.9999Z" fill="#C3921C"/>
<path id="Path_56_" fill-rule="evenodd" clip-rule="evenodd" d="M49.0447 49.2109C48.7246 49.4589 48.5858 49.8754 48.6929 50.266C48.8001 50.6564 49.1321 50.9438 49.534 50.9937C49.9358 51.0436 50.328 50.8464 50.5275 50.494C50.727 50.1417 50.6944 49.7038 50.4448 49.385C50.1055 48.9514 49.4797 48.8737 49.0447 49.2109Z" fill="#C3921C"/>
<path id="Path_55_" fill-rule="evenodd" clip-rule="evenodd" d="M47.0447 39.2111C46.7246 39.4591 46.5858 39.8757 46.6929 40.2662C46.8001 40.6566 47.1321 40.944 47.534 40.9939C47.9358 41.0438 48.328 40.8466 48.5275 40.4942C48.727 40.1419 48.6944 39.704 48.4448 39.3852C48.1054 38.9517 47.4797 38.8739 47.0447 39.2111Z" fill="#C3921C"/>
</g>
</g>
</g>
</g>
</g>
<defs>
<clipPath id="clip0_108_1793">
<rect width="60" height="60" fill="white" transform="translate(0.660156)"/>
</clipPath>
</defs>
</svg>
