<svg width="60" height="60" viewBox="0 0 60 60" fill="none" xmlns="http://www.w3.org/2000/svg">
<g id="SVG" clip-path="url(#clip0_108_1681)">
<g id="Group">
<g id="Page-1_75_">
<g id="_x30_76---Construction-Conversation">
<path id="Shape_202_" d="M55.0001 0.5H25.0001C22.24 0.503346 20.0034 2.73999 20 5.50003V21.5H5.00003C2.23999 21.5033 0.00334635 23.74 0 26.5V48.5C0.00295266 50.8006 1.57268 52.8035 3.80598 53.356L3.07893 56.943C2.90374 57.5471 3.02293 58.1984 3.40077 58.7013C3.77862 59.2042 4.37092 59.5 4.99993 59.5C5.36528 59.4985 5.72363 59.4005 6.03898 59.216L15.2839 53.5H34.9999C37.76 53.4967 39.9966 51.26 40 48.5V32.5H44.716L53.9909 38.227C54.7 38.6382 55.5881 38.5752 56.2319 38.0681C56.859 37.5908 57.1378 36.7836 56.9389 36.0211L56.1939 32.3551C58.4275 31.8036 59.9976 29.8007 59.9999 27.5001V5.50003C59.9968 2.73999 57.7601 0.503346 55.0001 0.5ZM38 48.5C38 50.1568 36.6569 51.5 35 51.5H15C14.8146 51.5 14.6328 51.5516 14.475 51.649L5.02001 57.4211L5.97904 52.701C6.03937 52.4068 5.96437 52.1011 5.77452 51.8682C5.58476 51.6354 5.30032 51.5002 5.00003 51.5C3.3432 51.5 2.00003 50.1568 2.00003 48.5V26.5C2.00003 24.8432 3.3432 23.5 5.00003 23.5H35C36.6569 23.5 38 24.8432 38 26.5V48.5ZM58.0001 27.5C58.0001 29.1568 56.6569 30.5 55.0001 30.5C54.6999 30.5002 54.4157 30.6353 54.226 30.8679C54.0362 31.1005 53.961 31.406 54.0211 31.7001L55.0161 36.511L45.5251 30.65C45.3674 30.5523 45.1856 30.5003 45.0001 30.5H40.0001V26.5C39.9967 23.74 37.7601 21.5033 35 21.5H22V5.50003C22 3.8432 23.3431 2.50003 25 2.50003H55C56.6568 2.50003 58 3.8432 58 5.50003L58.0001 27.5Z" fill="#C3921C"/>
<path id="Shape_201_" d="M40 12.5C38.3432 12.5 37 13.8432 37 15.5C37 17.1568 38.3432 18.5 40 18.5C41.6568 18.5 43 17.1568 43 15.5C43 13.8432 41.6568 12.5 40 12.5ZM40 16.5001C39.4478 16.5001 39 16.0523 39 15.5001C39 14.9479 39.4478 14.5001 40 14.5001C40.5522 14.5001 41 14.9479 41 15.5001C41 16.0523 40.5522 16.5001 40 16.5001Z" fill="#C3921C"/>
<path id="Shape_200_" d="M30 12.5C28.3432 12.5 27 13.8432 27 15.5C27 17.1568 28.3432 18.5 30 18.5C31.6568 18.5 33 17.1568 33 15.5C33 13.8432 31.6568 12.5 30 12.5ZM30 16.5001C29.4478 16.5001 29 16.0523 29 15.5001C29 14.9479 29.4478 14.5001 30 14.5001C30.5522 14.5001 31 14.9479 31 15.5001C31 16.0523 30.5523 16.5001 30 16.5001Z" fill="#C3921C"/>
<path id="Shape_199_" d="M50 12.5C48.3432 12.5 47 13.8432 47 15.5C47 17.1568 48.3432 18.5 50 18.5C51.6568 18.5 53 17.1568 53 15.5C53 13.8432 51.6568 12.5 50 12.5ZM50 16.5001C49.4478 16.5001 49 16.0523 49 15.5001C49 14.9479 49.4478 14.5001 50 14.5001C50.5522 14.5001 51 14.9479 51 15.5001C51 16.0523 50.5522 16.5001 50 16.5001Z" fill="#C3921C"/>
<path id="Shape_198_" d="M34 38.5001H31V35.5001C31 34.3955 30.1046 33.5 29 33.5H26V30.5C26 29.3954 25.1045 28.5 23.9999 28.5H15.9999C14.8953 28.5 13.9999 29.3954 13.9999 30.5V33.5H10.9999C9.89528 33.5 8.99984 34.3955 8.99984 35.5001V38.5001H6.00003C4.89544 38.5001 4 39.3955 4 40.5001V43.5001C4 44.6047 4.89544 45.5001 6.00003 45.5001H14.0001C14.3522 45.4982 14.6974 45.4022 15 45.2221C15.3027 45.4021 15.6479 45.4981 16 45.5001H24C24.3522 45.4982 24.6974 45.4022 25 45.2221C25.3026 45.4021 25.6479 45.4981 26 45.5001H34C35.1046 45.5001 36 44.6047 36 43.5001V40.5001C36 39.3955 35.1046 38.5001 34 38.5001ZM29.0001 35.5001V38.5001H21V35.5001H29.0001ZM16 30.5H24V33.5H16V30.5ZM11.0001 35.5001H19.0001V38.5001H11.0001V35.5001ZM6.00003 43.5001V40.5001H14.0001V43.5001H6.00003ZM16 43.5001V40.5001H24V43.5001H16ZM26.0001 43.5001V40.5001H34.0001V43.5001H26.0001Z" fill="#C3921C"/>
</g>
</g>
</g>
</g>
<defs>
<clipPath id="clip0_108_1681">
<rect width="60" height="60" fill="white"/>
</clipPath>
</defs>
</svg>
