<svg width="61" height="60" viewBox="0 0 61 60" fill="none" xmlns="http://www.w3.org/2000/svg">
<g id="SVG" clip-path="url(#clip0_108_1736)">
<g id="Group">
<g id="Group_2">
<path id="Vector" d="M59.4759 15.7554C59.4757 15.7554 59.4757 15.7554 59.4756 15.7554L59.4736 15.7534L55.6008 15.2008C55.0565 15.1233 54.678 14.6192 54.7556 14.0748C54.7928 13.8132 54.9325 13.5773 55.1438 13.4187L58.274 11.0711C58.7139 10.7412 58.803 10.1173 58.4731 9.67733L54.889 4.89854C54.5591 4.45862 53.9351 4.36951 53.4952 4.69942L50.366 7.04701C49.928 7.37941 49.3035 7.29379 48.9711 6.85573C48.8097 6.64305 48.7405 6.37437 48.7791 6.11016L49.3326 2.23735C49.4107 1.69301 49.0327 1.18863 48.4885 1.11047C48.4881 1.11047 48.4878 1.11035 48.4874 1.11035L42.5776 0.266096C42.0334 0.187943 41.5288 0.565766 41.4506 1.1101C41.4506 1.11023 41.4506 1.11023 41.4506 1.11035L40.8971 4.98316C40.8195 5.5275 40.3154 5.90594 39.7711 5.82841C39.5095 5.7912 39.2735 5.65145 39.115 5.44014L36.7684 2.31003C36.4385 1.8701 35.8145 1.781 35.3746 2.11091L32.3828 4.35595C31.0294 4.21209 29.6644 4.21209 28.3109 4.35595C19.447 5.36908 12.496 12.438 11.6319 21.3177C11.605 21.5994 11.5951 21.8792 11.5812 22.1589H11.2825C10.8101 22.1598 10.4033 22.4926 10.3088 22.9554L9.62085 26.2269L6.86508 24.3263C6.46959 24.0534 5.93546 24.1021 5.59571 24.4418L2.60897 27.4286C2.26972 27.7682 2.22119 28.3016 2.49348 28.6969L4.38509 31.4477L1.11261 32.1357C0.654889 32.236 0.329085 32.6418 0.33008 33.1104V37.0927C0.329832 37.5636 0.659743 37.9703 1.12057 38.0674L4.39305 38.7553L2.50145 41.5061C2.22915 41.9015 2.27769 42.4348 2.61693 42.7745L5.60368 45.7612C5.94342 46.101 6.47755 46.1496 6.87305 45.8767L9.62384 43.9801L10.3118 47.2526C10.4062 47.7154 10.8131 48.0482 11.2855 48.0491H15.2678C15.7387 48.0493 16.1454 47.7194 16.2425 47.2586L16.9304 43.9861L19.6812 45.8777C20.0766 46.15 20.61 46.1015 20.9496 45.7622L22.4957 44.2111V47.0485C22.5002 48.4648 23.259 49.7714 24.4869 50.4773V56.0087C24.4869 58.2081 26.2698 59.9911 28.4692 59.9911H32.4515C34.6509 59.9911 36.4339 58.2081 36.4339 56.0087V50.4773C37.6618 49.7714 38.4206 48.4648 38.425 47.0485V43.108C38.452 41.45 39.3194 39.9193 40.7278 39.044C41.554 38.508 42.3375 37.9088 43.0714 37.252L41.7433 35.7686C41.0868 36.3569 40.3855 36.8932 39.6456 37.3724C37.6688 38.6132 36.4586 40.7741 36.4339 43.108V47.0485C36.4339 48.1482 35.5425 49.0397 34.4427 49.0397H26.478C25.3783 49.0397 24.4869 48.1482 24.4869 47.0485V43.0254C24.4639 40.7356 23.2728 38.6164 21.3289 37.4063C13.438 32.448 11.0606 22.0319 16.0188 14.141C19.0952 9.24513 24.4641 6.26522 30.2463 6.24457C30.2315 6.28003 30.2185 6.31625 30.2075 6.35309C30.1705 6.61443 30.239 6.87987 30.3977 7.09081L32.7442 10.2199C32.9916 10.5401 33.0154 10.9799 32.804 11.325C32.6004 11.6722 32.2068 11.8616 31.8084 11.8039L27.9356 11.2504C27.3912 11.1723 26.8869 11.5503 26.8087 12.0945C26.8087 12.0949 26.8086 12.0952 26.8086 12.0956L25.9633 18.0084C25.8853 18.5526 26.2633 19.0571 26.8075 19.1352C26.8078 19.1352 26.8082 19.1354 26.8086 19.1354L30.6814 19.6889C31.2257 19.7664 31.6042 20.2706 31.5266 20.8149C31.4894 21.0765 31.3497 21.3125 31.1384 21.471L28.0093 23.8176C27.5693 24.1475 27.4802 24.7715 27.8101 25.2114L31.3942 29.9902C31.7241 30.4301 32.3481 30.5192 32.7881 30.1893L35.9182 27.8427C36.3585 27.5134 36.9824 27.6034 37.3117 28.0438C37.4693 28.2545 37.5371 28.5191 37.5001 28.7796L36.9476 32.6524C36.8694 33.1966 37.2473 33.7012 37.7916 33.7794C37.7917 33.7794 37.7917 33.7794 37.7918 33.7794L43.7056 34.6246C43.7521 34.6306 43.7991 34.6336 43.846 34.6336C44.3417 34.6342 44.7622 34.2701 44.8326 33.7794L45.3852 29.9066C45.4627 29.3622 45.9668 28.9838 46.5112 29.0613C46.7727 29.0985 47.0087 29.2383 47.1672 29.4496L49.5148 32.5787C49.8447 33.0186 50.4687 33.1077 50.9086 32.7778L55.6874 29.1937C56.1274 28.8638 56.2165 28.2398 55.8866 27.7999L53.54 24.6708C53.2937 24.3501 53.2699 23.911 53.4802 23.5657C53.6795 23.2139 54.0767 23.0232 54.4758 23.0878L58.3486 23.6404C58.8928 23.7185 59.3975 23.3406 59.4756 22.7964C59.4756 22.7962 59.4756 22.7962 59.4756 22.7961L60.3199 16.8824C60.398 16.338 60.0202 15.8335 59.4759 15.7554ZM26.478 51.0308H34.4427V53.022H26.478V51.0308ZM26.478 55.0132H34.4427V56.0087C34.4427 57.1085 33.5513 57.9999 32.4515 57.9999H28.4692C27.3695 57.9999 26.478 57.1085 26.478 56.0087V55.0132ZM18.5522 37.8443C19.0958 38.2889 19.6638 38.7028 20.2537 39.0838C21.1944 39.6783 21.9025 40.5777 22.2598 41.6315L20.1242 43.7631L18.0564 42.3374C17.1509 41.7134 15.9111 41.9417 15.287 42.8471C15.1374 43.0643 15.0323 43.309 14.9781 43.567L14.4564 46.0529H12.0899L11.5682 43.5709C11.3417 42.4948 10.2858 41.806 9.20968 42.0325C8.9517 42.0868 8.70703 42.1918 8.48987 42.3414L6.42105 43.7631L4.6071 41.9531L6.03178 39.8863C6.65638 38.9812 6.42889 37.7412 5.52378 37.1166C5.3065 36.9666 5.06158 36.8613 4.80323 36.8069L2.32124 36.2843V33.9188L4.80323 33.3961C5.87896 33.168 6.56616 32.111 6.33805 31.0352C6.28391 30.7799 6.18025 30.5379 6.03277 30.3227L4.6071 28.2499L6.42105 26.4399L8.49087 27.8656C9.39672 28.489 10.6366 28.26 11.26 27.3541C11.4093 27.1372 11.5141 26.8928 11.5682 26.6351L11.7424 25.8068C11.902 26.9539 12.1662 28.0839 12.5319 29.1828C9.25609 29.5733 6.9171 32.5456 7.30762 35.8214C7.69813 39.0973 10.6704 41.4363 13.9463 41.0458C15.9183 40.8106 17.6445 39.6108 18.5522 37.8443ZM17.0061 36.4416C16.2626 38.508 13.9849 39.5805 11.9184 38.8372C9.85195 38.0937 8.77946 35.816 9.52279 33.7495C10.0915 32.1687 11.5925 31.1157 13.2725 31.1192C13.2855 31.1192 13.2974 31.1192 13.3104 31.1192C14.2259 33.0933 15.4762 34.8939 17.0061 36.4416ZM57.6398 21.5258L54.7526 21.1136C53.1196 20.8804 51.6068 22.0152 51.3736 23.6481C51.2616 24.4322 51.4657 25.2288 51.9411 25.8625L53.6903 28.1952L50.5044 30.5846L48.7542 28.2529C47.7646 26.9331 45.8925 26.6654 44.5729 27.6551C43.9392 28.1302 43.5202 28.8377 43.4079 29.6218L43.0047 32.513L39.0632 31.9495L39.4754 29.0623C39.7092 27.4294 38.575 25.9161 36.9421 25.6824C36.1575 25.5701 35.3605 25.7742 34.7264 26.2498L32.3938 27.999L30.0044 24.8132L32.3361 23.0629C33.6558 22.0733 33.9235 20.2013 32.9339 18.8816C32.4588 18.2479 31.7513 17.8289 30.9671 17.7167L28.0799 17.3045L28.6434 13.363L31.5306 13.7751C33.1635 14.009 34.6768 12.8748 34.9105 11.2419C35.0229 10.4572 34.8188 9.66028 34.3432 9.02622L32.5879 6.69158L35.7738 4.30219L37.524 6.63483C38.5136 7.9546 40.3857 8.22229 41.7054 7.23268C42.339 6.75754 42.7581 6.05005 42.8703 5.26591L43.2825 2.37872L47.224 2.94122L46.8118 5.82841C46.5786 7.46142 47.7133 8.9742 49.3463 9.20742C50.1305 9.31942 50.9271 9.11533 51.5607 8.63994L53.8934 6.8907L56.2828 10.0766L53.9501 11.8268C52.6304 12.8164 52.3627 14.6885 53.3523 16.0081C53.8274 16.6418 54.5349 17.0608 55.3191 17.1731L58.2063 17.5852L57.6398 21.5258Z" fill="#C3921C"/>
</g>
</g>
<g id="Group_3">
<g id="Group_4">
<path id="Vector_2" d="M43.1404 9.47925C38.7417 9.47925 35.1758 13.0452 35.1758 17.4439C35.1758 21.8426 38.7417 25.4086 43.1404 25.4086C47.5392 25.4086 51.1051 21.8426 51.1051 17.4439C51.1001 13.0472 47.5372 9.4841 43.1404 9.47925ZM43.1404 23.4174C39.8413 23.4174 37.1669 20.743 37.1669 17.4439C37.1669 14.1448 39.8413 11.4704 43.1404 11.4704C46.4395 11.4704 49.1139 14.1448 49.1139 17.4439C49.1101 20.7414 46.4379 23.4135 43.1404 23.4174Z" fill="#C3921C"/>
</g>
</g>
<g id="Group_5">
<g id="Group_6">
<path id="Vector_3" d="M31.456 44.0618H29.4648V47.0485H31.456V44.0618Z" fill="#C3921C"/>
</g>
</g>
<g id="Group_7">
<g id="Group_8">
<path id="Vector_4" d="M26.1056 34.2841C19.9597 31.8833 16.9238 24.9548 19.3248 18.8089C20.2551 16.4275 21.9249 14.4073 24.0885 13.0454L23.0242 11.3608C16.5111 15.464 14.5574 24.0702 18.6606 30.5833C20.2497 33.1057 22.6057 35.0522 25.3828 36.1369C27.8409 37.0787 29.464 39.4382 29.4647 42.0706H31.4558C31.4589 38.6169 29.3306 35.5195 26.1056 34.2841Z" fill="#C3921C"/>
</g>
</g>
<g id="Group_9">
<g id="Group_10">
<path id="Vector_5" d="M56.3451 37.0928H49.376V39.0839H56.3451V37.0928Z" fill="#C3921C"/>
</g>
</g>
<g id="Group_11">
<g id="Group_12">
<path id="Vector_6" d="M49.0187 42.3008L47.7441 43.8306L53.7181 48.8077L54.9926 47.2779L49.0187 42.3008Z" fill="#C3921C"/>
</g>
</g>
<g id="Group_13">
<g id="Group_14">
<path id="Vector_7" d="M45.3945 45.0574H43.4033V52.0264H45.3945V45.0574Z" fill="#C3921C"/>
</g>
</g>
<g id="Group_15">
<g id="Group_16">
<path id="Vector_8" d="M9.31078 15.2191L1.34668 17.21L1.8293 19.1406L9.7934 17.1498L9.31078 15.2191Z" fill="#C3921C"/>
</g>
</g>
<g id="Group_17">
<g id="Group_18">
<path id="Vector_9" d="M4.15766 5.42088L3.00098 7.04028L9.9695 12.0177L11.1262 10.3983L4.15766 5.42088Z" fill="#C3921C"/>
</g>
</g>
<g id="Group_19">
<g id="Group_20">
<path id="Vector_10" d="M13.4593 0.00825346L11.5303 0.501465L13.5665 8.46551L15.4955 7.97229L13.4593 0.00825346Z" fill="#C3921C"/>
</g>
</g>
</g>
<defs>
<clipPath id="clip0_108_1736">
<rect width="60" height="60" fill="white" transform="translate(0.330078)"/>
</clipPath>
</defs>
</svg>
