<svg width="61" height="60" viewBox="0 0 61 60" fill="none" xmlns="http://www.w3.org/2000/svg">
<g id="SVG">
<g id="Group">
<path id="Vector" d="M57.1965 0H35.5371C34.5015 0 33.6214 0.706055 33.397 1.71691L31.5749 9.92062C31.3289 11.0284 31.9858 12.1576 33.0705 12.4913L38.8267 14.2622L34.2261 27.9063L27.3292 26.6283C26.9916 26.5655 26.6567 26.5873 26.3465 26.6784L25.9985 26.3321C25.6542 25.9896 25.0976 25.9911 24.7556 26.3352C24.4132 26.6794 24.4146 27.2359 24.7586 27.5781L25.0181 27.8363C24.9801 27.9203 24.9454 28.0063 24.9181 28.0968L22.3386 36.6374H11.6473C11.4403 36.6374 11.2611 36.49 11.221 36.2869L5.74132 8.46984C6.32678 8.65535 7.13257 7.87383 6.67975 7.14164H29.1325C29.618 7.14164 30.0114 6.74824 30.0114 6.26273C30.0114 5.77723 29.618 5.38383 29.1325 5.38383H6.00803C5.34991 5.38383 4.73268 5.67539 4.31468 6.18375C3.89678 6.69211 3.72991 7.35398 3.85717 7.99969L9.49647 36.6267C9.69839 37.6514 10.603 38.3953 11.6473 38.3953H21.8077L16.1062 57.2722C15.9106 57.9197 16.0298 58.6025 16.4329 59.1455C16.8362 59.6885 17.4554 59.9999 18.1317 59.9999H54.5726C55.2152 59.9999 55.823 59.7195 56.2401 59.2309C56.6573 58.7421 56.8386 58.0978 56.7377 57.4631L56.1322 53.6571C56.0558 53.1778 55.6059 52.8504 55.126 52.9271C54.6466 53.0034 54.3199 53.4539 54.396 53.9333L55.0015 57.7393C55.029 57.9116 54.9515 58.0328 54.903 58.0896C54.8544 58.1466 54.7469 58.2421 54.5725 58.2421H18.1317C17.975 58.2421 17.8843 58.1515 17.8442 58.0976C17.8041 58.0436 17.7437 57.9305 17.7889 57.7806L23.6439 38.3953H30.9699C31.9115 38.3953 32.7464 37.7958 33.0473 36.9035L35.4046 29.9123L50.7553 32.7568C50.9272 32.7979 51.0555 32.9358 51.0833 33.1111L53.7464 49.8496C53.8226 50.329 54.2731 50.6553 54.7525 50.5795C55.2319 50.5032 55.5587 50.0528 55.4825 49.5734L52.8194 32.8349C52.6761 31.9348 52.0079 31.2288 51.117 31.0365C51.1087 31.0346 51.1001 31.033 51.0917 31.0315L35.9721 28.2298L40.5076 14.7791L56.5519 19.7152C56.7671 19.7812 56.9861 19.8139 57.2032 19.8139C57.6637 19.8138 58.1148 19.667 58.4991 19.383C59.0646 18.9655 59.3889 18.3227 59.3889 17.6197V2.19223C59.3888 0.983438 58.4053 0 57.1965 0ZM31.3817 36.3418C31.3219 36.5187 31.1566 36.6375 30.9699 36.6375H24.1749L26.601 28.6051C26.6539 28.4302 26.8294 28.3237 27.0091 28.3566L33.6588 29.5888L31.3817 36.3418ZM33.5874 10.8111C33.3725 10.7452 33.2423 10.5212 33.291 10.3017L33.9929 7.14164H40.6226C40.8166 7.14164 40.927 7.25508 40.9756 7.3227C41.0241 7.39031 41.0963 7.53105 41.0344 7.71492L39.3887 12.5959L33.5874 10.8111ZM57.631 17.6197C57.631 17.8105 57.5206 17.9204 57.4546 17.9691C57.3888 18.0178 57.2515 18.0909 57.0687 18.0349L41.0694 13.1128L42.7001 8.27648C42.925 7.6091 42.8142 6.86918 42.4034 6.29719C41.9926 5.7252 41.3269 5.38371 40.6228 5.38371H34.3833L35.1131 2.09789C35.1576 1.8975 35.332 1.7577 35.5372 1.7577H57.1965C57.4361 1.7577 57.631 1.95258 57.631 2.19211V17.6197Z" fill="#C3921C"/>
<path id="Vector_2" d="M9.60879 44.1825C9.26825 43.3602 8.47325 42.8289 7.58333 42.8289H5.11184C4.03032 42.8289 3.12012 43.6038 2.94762 44.6715L1.95985 50.7838C1.85719 51.4192 2.03754 52.0646 2.45485 52.5546C2.87215 53.0448 3.48047 53.3258 4.12407 53.3258H10.1143C10.8481 53.3258 11.5294 52.9617 11.9371 52.3516C12.3448 51.7416 12.4205 50.9727 12.1398 50.2949L9.60879 44.1825ZM10.4755 51.375C10.4273 51.4471 10.3164 51.568 10.1143 51.568H4.12407C3.94946 51.568 3.84188 51.4723 3.79336 51.4151C3.74473 51.3581 3.66739 51.2366 3.69528 51.0642L4.68305 44.9518C4.71715 44.7402 4.89751 44.5867 5.11184 44.5867H7.58333C7.75969 44.5867 7.91731 44.6919 7.98469 44.8549L10.5158 50.9673C10.5931 51.1541 10.5237 51.3029 10.4755 51.375Z" fill="#C3921C"/>
<path id="Vector_3" d="M20.6856 22.2854C20.3432 22.6296 20.3446 23.186 20.6886 23.5283L21.6025 24.4376C21.774 24.6082 21.9982 24.6935 22.2224 24.6935C22.4481 24.6935 22.6738 24.6071 22.8454 24.4345C23.1878 24.0903 23.1864 23.5338 22.8423 23.1916L21.9285 22.2824C21.5843 21.9398 21.0278 21.9412 20.6856 22.2854Z" fill="#C3921C"/>
<path id="Vector_4" d="M12.544 14.1853C12.2016 14.5295 12.203 15.086 12.547 15.4282L13.4609 16.3375C13.6324 16.5081 13.8566 16.5934 14.0808 16.5934C14.3065 16.5934 14.5322 16.507 14.7038 16.3344C15.0462 15.9902 15.0448 15.4337 14.7007 15.0915L13.7869 14.1823C13.4427 13.8397 12.8862 13.8411 12.544 14.1853Z" fill="#C3921C"/>
<path id="Vector_5" d="M8.47358 10.1352C8.13128 10.4794 8.13268 11.0359 8.47675 11.3782L9.39057 12.2873C9.56214 12.4578 9.78632 12.5432 10.0105 12.5432C10.2362 12.5432 10.4619 12.4568 10.6336 12.2842C10.9759 11.94 10.9745 11.3835 10.6304 11.0412L9.71659 10.132C9.37229 9.78972 8.81589 9.79113 8.47358 10.1352Z" fill="#C3921C"/>
<path id="Vector_6" d="M16.6142 18.2353C16.2719 18.5795 16.2733 19.136 16.6174 19.4783L17.5312 20.3874C17.7028 20.5579 17.9269 20.6433 18.1511 20.6433C18.3768 20.6433 18.6025 20.5569 18.7742 20.3843C19.1165 20.0401 19.1151 19.4836 18.771 19.1413L17.8572 18.2321C17.5129 17.8898 16.9565 17.8912 16.6142 18.2353Z" fill="#C3921C"/>
</g>
</g>
</svg>
