<svg width="61" height="60" viewBox="0 0 61 60" fill="none" xmlns="http://www.w3.org/2000/svg">
<g id="SVG" clip-path="url(#clip0_108_1777)">
<g id="Group">
<path id="Vector" d="M57.3281 0H27.038C25.4894 0 24.2295 1.25988 24.2295 2.8084V18.0124C23.3676 17.9046 22.4898 17.8485 21.5991 17.8485C9.97801 17.8485 0.523438 27.303 0.523438 38.9242C0.523438 50.5453 9.97801 60 21.5991 60C33.2204 60 42.675 50.5454 42.675 38.9243C42.6868 28.9028 35.5925 20.3701 25.9875 18.3094V2.8084C25.9875 2.22914 26.4588 1.75781 27.0382 1.75781H57.3282C57.9075 1.75781 58.3788 2.22914 58.3788 2.8084V33.0984C58.3788 33.6777 57.9076 34.149 57.3282 34.149H45.5743C45.0888 34.149 44.6954 34.5425 44.6954 35.0279C44.6954 35.5133 45.0888 35.9068 45.5743 35.9068H57.3282C58.8767 35.9068 60.1366 34.647 60.1366 33.0984V2.8084C60.1365 1.25988 58.8766 0 57.3281 0ZM21.5991 58.2422C10.9473 58.2422 2.28125 49.5762 2.28125 38.9243C2.28125 28.2724 10.9471 19.6064 21.5991 19.6064C22.4913 19.6064 23.3691 19.6686 24.2295 19.7863V33.0984C24.2295 34.647 25.4894 35.9068 27.038 35.9068H40.6809C40.8358 36.8903 40.9171 37.898 40.9171 38.9243C40.9171 49.5762 32.2511 58.2422 21.5991 58.2422ZM40.3194 34.149H27.038C26.4588 34.149 25.9873 33.6777 25.9873 33.0984V20.1095C32.9926 21.7429 38.5454 27.1984 40.3194 34.149Z" fill="#C3921C"/>
<path id="Vector_2" d="M7.11605 14.5329H13.2778C14.3105 14.5329 15.1508 13.6926 15.1508 12.66V6.49825C15.1508 5.46548 14.3105 4.62524 13.2778 4.62524H7.11605C6.0834 4.62524 5.24316 5.46548 5.24316 6.49825V12.66C5.24316 13.6926 6.0834 14.5329 7.11605 14.5329ZM7.00098 6.49813C7.00098 6.43462 7.05254 6.38294 7.11605 6.38294H13.2778C13.3413 6.38294 13.393 6.43462 13.393 6.49813V12.6599C13.393 12.7234 13.3413 12.7749 13.2778 12.7749H7.11605C7.05254 12.7749 7.00098 12.7233 7.00098 12.6599V6.49813Z" fill="#C3921C"/>
<path id="Vector_3" d="M50.1 44.7412C47.1682 44.7412 44.7832 47.1263 44.7832 50.058C44.7832 52.078 45.9042 53.898 47.709 54.808C48.1424 55.0266 48.671 54.8523 48.8896 54.4189C49.108 53.9854 48.9339 53.4569 48.5005 53.2384C47.292 52.629 46.541 51.4102 46.541 50.0579C46.541 48.0955 48.1376 46.4989 50.1 46.4989C52.0624 46.4989 53.659 48.0955 53.659 50.0579C53.659 51.4202 52.8646 52.681 51.635 53.2699C51.1973 53.4797 51.0124 54.0045 51.2222 54.4422C51.3731 54.7576 51.6878 54.9417 52.0154 54.9417C52.1428 54.9417 52.2721 54.9139 52.3945 54.8552C54.2305 53.9758 55.4168 52.0927 55.4168 50.0578C55.4168 47.1263 53.0318 44.7412 50.1 44.7412Z" fill="#C3921C"/>
</g>
</g>
<defs>
<clipPath id="clip0_108_1777">
<rect width="60" height="60" fill="white" transform="translate(0.330078)"/>
</clipPath>
</defs>
</svg>
