<svg width="61" height="60" viewBox="0 0 61 60" fill="none" xmlns="http://www.w3.org/2000/svg">
<g id="SVG" clip-path="url(#clip0_108_1834)">
<g id="22-guarantee">
<g id="linear color">
<path id="Vector" d="M46.5977 34.2188H37.6914V29.1797C37.6914 28.1495 37.6914 26.4258 36.7956 24.8951C35.6833 22.9948 33.619 22.0312 30.6602 22.0312C30.2872 22.0312 29.9295 22.1794 29.6658 22.4431C29.4021 22.7069 29.2539 23.0645 29.2539 23.4375V30.6563L26.7364 34.7473L23.6289 36.7771V35.625C23.6289 35.252 23.4807 34.8944 23.217 34.6306C22.9533 34.3669 22.5956 34.2188 22.2227 34.2188H12.8477C12.4747 34.2188 12.117 34.3669 11.8533 34.6306C11.5896 34.8944 11.4414 35.252 11.4414 35.625V58.125C11.4414 58.498 11.5896 58.8556 11.8533 59.1194C12.117 59.3831 12.4747 59.5312 12.8477 59.5312H22.2227C22.4641 59.5312 22.7015 59.4689 22.9118 59.3502C23.1222 59.2316 23.2984 59.0607 23.4234 58.8541C24.1995 59.2985 25.0784 59.5319 25.9727 59.5312H44.7227C45.4825 59.5318 46.2283 59.327 46.8813 58.9385C47.5342 58.55 48.0701 57.9923 48.4321 57.3243C48.7941 56.6563 48.9689 55.9028 48.9379 55.1436C48.9069 54.3845 48.6713 53.6478 48.256 53.0115C48.3921 52.9053 48.5218 52.791 48.6443 52.6693C49.3284 51.9856 49.7563 51.0873 49.8563 50.1254C49.9563 49.1634 49.7223 48.1963 49.1935 47.3865C49.3296 47.2803 49.4593 47.166 49.5818 47.0443C50.3441 46.2822 50.7854 45.257 50.8148 44.1794C50.8442 43.1019 50.4596 42.0541 49.74 41.2515C50.2833 40.6447 50.6394 39.8935 50.7651 39.0888C50.8909 38.2841 50.7809 37.4601 50.4487 36.7165C50.1164 35.9728 49.5759 35.3413 48.8926 34.898C48.2092 34.4548 47.4122 34.2189 46.5977 34.2188ZM20.8164 56.7188H14.2539V37.0312H20.8164V56.7188ZM45.7188 56.3057C45.5882 56.4369 45.433 56.5409 45.262 56.6118C45.0911 56.6827 44.9077 56.7191 44.7227 56.7188H25.9727C25.3513 56.718 24.7555 56.4709 24.3162 56.0315C23.8768 55.5921 23.6296 54.9964 23.6289 54.375V40.1367L28.7338 36.803C28.8946 36.6968 29.0322 36.559 29.1382 36.3981C29.2442 36.2371 29.3164 36.0563 29.3505 35.8666L31.8583 31.7923C31.9946 31.5704 32.0667 31.3151 32.0664 31.0547V24.9492C34.6421 25.3874 34.8789 27.1309 34.8789 29.1797V35.625C34.8789 35.998 35.0271 36.3556 35.2908 36.6194C35.5545 36.8831 35.9122 37.0312 36.2852 37.0312H46.5977C46.9706 37.0312 47.3283 37.1794 47.592 37.4431C47.8558 37.7069 48.0039 38.0645 48.0039 38.4375C48.0039 38.8105 47.8558 39.1681 47.592 39.4319C47.3283 39.6956 46.9706 39.8438 46.5977 39.8438H43.7852C43.4122 39.8438 43.0545 39.9919 42.7908 40.2556C42.5271 40.5194 42.3789 40.877 42.3789 41.25C42.3789 41.623 42.5271 41.9806 42.7908 42.2444C43.0545 42.5081 43.4122 42.6562 43.7852 42.6562H46.5977C46.9706 42.6562 47.3283 42.8044 47.592 43.0681C47.8558 43.3319 48.0039 43.6895 48.0039 44.0625C48.0039 44.4355 47.8558 44.7931 47.592 45.0569C47.3283 45.3206 46.9706 45.4688 46.5977 45.4688H43.7852C43.4122 45.4688 43.0545 45.6169 42.7908 45.8806C42.5271 46.1444 42.3789 46.502 42.3789 46.875C42.3789 47.248 42.5271 47.6056 42.7908 47.8694C43.0545 48.1331 43.4122 48.2812 43.7852 48.2812H45.6602C46.0331 48.2812 46.3908 48.4294 46.6545 48.6931C46.9183 48.9569 47.0664 49.3145 47.0664 49.6875C47.0664 50.0605 46.9183 50.4181 46.6545 50.6819C46.3908 50.9456 46.0331 51.0938 45.6602 51.0938H43.7852C43.4122 51.0938 43.0545 51.2419 42.7908 51.5056C42.5271 51.7694 42.3789 52.127 42.3789 52.5C42.3789 52.873 42.5271 53.2306 42.7908 53.4944C43.0545 53.7581 43.4122 53.9062 43.7852 53.9062H44.7227C45.0007 53.9061 45.2725 53.9885 45.5038 54.1428C45.735 54.2971 45.9154 54.5165 46.022 54.7733C46.1286 55.0301 46.1567 55.3127 46.1027 55.5855C46.0487 55.8582 45.9151 56.1088 45.7188 56.3057Z" fill="#C3921C"/>
<path id="Vector_2" d="M17.5352 55.8984C18.3118 55.8984 18.9414 55.2688 18.9414 54.4922C18.9414 53.7155 18.3118 53.0859 17.5352 53.0859C16.7585 53.0859 16.1289 53.7155 16.1289 54.4922C16.1289 55.2688 16.7585 55.8984 17.5352 55.8984Z" fill="#C3921C"/>
<path id="Vector_3" d="M24.9966 12.4712L24.1411 17.4577C24.0968 17.7163 24.1257 17.9821 24.2246 18.2252C24.3235 18.4682 24.4884 18.6788 24.7007 18.833C24.9129 18.9872 25.1641 19.079 25.4259 19.0979C25.6876 19.1168 25.9494 19.0621 26.1816 18.94L30.6598 16.5858L35.1378 18.94C36.1189 19.4986 37.4062 18.565 37.1782 17.4577L36.3228 12.4712L39.9457 8.93988C40.1336 8.75673 40.2665 8.52466 40.3294 8.26992C40.3923 8.01518 40.3826 7.74793 40.3016 7.49838C40.2205 7.24883 40.0712 7.02695 39.8706 6.85781C39.67 6.68867 39.4261 6.57903 39.1664 6.54129L34.1598 5.81379L31.9209 1.27734C31.8047 1.04203 31.6251 0.843901 31.4022 0.705365C31.1794 0.566828 30.9222 0.493408 30.6598 0.493408C30.3974 0.493408 30.1402 0.566828 29.9174 0.705365C29.6945 0.843901 29.5149 1.04203 29.3987 1.27734L27.1598 5.81379L22.1532 6.54129C21.8935 6.57903 21.6496 6.68867 21.449 6.85781C21.2484 7.02695 21.0991 7.24883 21.018 7.49838C20.937 7.74793 20.9273 8.01518 20.9902 8.26992C21.0531 8.52466 21.186 8.75673 21.3739 8.93988L24.9966 12.4712ZM28.2958 8.4907C28.5214 8.45792 28.7357 8.37077 28.9201 8.23676C29.1046 8.10276 29.2537 7.92592 29.3546 7.72148L30.6598 5.07679L31.965 7.72148C32.0659 7.92592 32.215 8.10276 32.3995 8.23676C32.5839 8.37077 32.7982 8.45792 33.0238 8.4907L35.9418 8.9148L33.8304 10.9733C33.6672 11.1325 33.5451 11.3289 33.4746 11.5457C33.4042 11.7626 33.3875 11.9933 33.426 12.218L33.9245 15.1242L31.3142 13.7521C31.1124 13.646 30.8878 13.5905 30.6598 13.5905C30.4318 13.5905 30.2072 13.646 30.0054 13.7521L27.3951 15.1242L27.8936 12.218C27.9321 11.9933 27.9154 11.7626 27.845 11.5457C27.7745 11.3289 27.6524 11.1325 27.4892 10.9733L25.3773 8.9148L28.2958 8.4907Z" fill="#C3921C"/>
<path id="Vector_4" d="M59.609 21.3742L55.5614 18.339L55.7671 13.2839C55.7778 13.0216 55.7149 12.7616 55.5855 12.5333C55.4561 12.3049 55.2654 12.1174 55.035 11.9918C54.8045 11.8662 54.5435 11.8076 54.2815 11.8226C54.0194 11.8377 53.7668 11.9257 53.5523 12.0769L49.4153 14.9884L44.6712 13.2306C44.4252 13.1394 44.1585 13.1189 43.9015 13.1714C43.6444 13.2239 43.4071 13.3473 43.2165 13.5275C43.0259 13.7078 42.8895 13.9378 42.8227 14.1916C42.756 14.4453 42.7616 14.7127 42.8389 14.9634L44.3294 19.7981L41.1918 23.7669C41.0291 23.9727 40.9272 24.22 40.8976 24.4807C40.8681 24.7415 40.9121 25.0052 41.0246 25.2423C41.1372 25.4793 41.3138 25.6801 41.5345 25.822C41.7553 25.9639 42.0113 26.0412 42.2737 26.0451L47.3322 26.1214L50.1372 30.332C50.7365 31.2944 52.307 31.0868 52.6382 30.007L54.274 25.2196L59.1452 23.853C59.3978 23.7821 59.6255 23.642 59.8027 23.4484C59.9798 23.2549 60.0993 23.0156 60.1475 22.7577C60.1958 22.4998 60.1709 22.2335 60.0757 21.989C59.9806 21.7445 59.8189 21.5316 59.609 21.3742ZM52.8025 22.711C52.583 22.7726 52.3817 22.8867 52.2161 23.0433C52.0504 23.2 51.9254 23.3946 51.8516 23.6103L50.898 26.4014L49.263 23.947C49.1366 23.7572 48.966 23.6011 48.7658 23.4919C48.5656 23.3827 48.3419 23.3239 48.1139 23.3204L45.1652 23.2759L46.9942 20.9625C47.1356 20.7836 47.2314 20.573 47.2733 20.3489C47.3152 20.1248 47.302 19.8939 47.2348 19.676L46.366 16.8579L49.1316 17.8826C49.3454 17.9618 49.5753 17.9878 49.8014 17.9584C50.0275 17.929 50.2431 17.8451 50.4296 17.7138L52.8413 16.0166L52.7214 18.9633C52.7121 19.1911 52.7584 19.4177 52.8562 19.6236C52.954 19.8296 53.1004 20.0087 53.2828 20.1454L55.6423 21.915L52.8025 22.711Z" fill="#C3921C"/>
<path id="Vector_5" d="M19.046 26.0453C20.1764 26.0649 20.8575 24.6305 20.1279 23.767L16.9903 19.7982L18.4808 14.9635C18.5581 14.7128 18.5638 14.4454 18.497 14.1917C18.4303 13.9379 18.2939 13.7079 18.1033 13.5276C17.9127 13.3473 17.6754 13.2239 17.4183 13.1714C17.1612 13.1189 16.8946 13.1394 16.6485 13.2306L11.9044 14.9884L7.76768 12.0769C7.55311 11.9257 7.30051 11.8377 7.03849 11.8226C6.77646 11.8076 6.51545 11.8662 6.28499 11.9918C6.05453 12.1174 5.86382 12.3049 5.73443 12.5333C5.60504 12.7616 5.54214 13.0216 5.55284 13.2839L5.7585 18.339L1.71096 21.3742C1.50105 21.5316 1.33937 21.7446 1.2442 21.9891C1.14903 22.2336 1.12417 22.4999 1.17242 22.7578C1.22068 23.0157 1.34013 23.255 1.51727 23.4485C1.6944 23.6421 1.92216 23.7823 2.17479 23.8531L7.04593 25.2197L8.68151 30.0071C9.01268 31.0871 10.5833 31.2943 11.1825 30.3321L13.9875 26.1215L19.046 26.0453ZM12.0566 23.9476L10.4217 26.4014L9.46819 23.6108C9.39447 23.3951 9.2694 23.2005 9.10376 23.0438C8.93811 22.8871 8.73685 22.7731 8.51733 22.7115L5.67776 21.9146L8.03721 20.1451C8.21962 20.0083 8.36603 19.8292 8.46384 19.6233C8.56165 19.4174 8.60792 19.1907 8.59866 18.9629L8.47878 16.0162L10.8905 17.7139C11.077 17.8452 11.2925 17.9291 11.5187 17.9585C11.7448 17.9879 11.9746 17.9619 12.1885 17.8827L14.9541 16.858L14.0849 19.6759C14.0177 19.8938 14.0045 20.1247 14.0464 20.3488C14.0883 20.5729 14.1841 20.7835 14.3255 20.9624L16.1546 23.2758L13.2058 23.3203C12.9778 23.3238 12.754 23.3826 12.5538 23.4918C12.3536 23.601 12.183 23.7572 12.0566 23.947V23.9476Z" fill="#C3921C"/>
</g>
</g>
</g>
<defs>
<clipPath id="clip0_108_1834">
<rect width="60" height="60" fill="white" transform="translate(0.660156)"/>
</clipPath>
</defs>
</svg>
