<svg width="60" height="60" viewBox="0 0 60 60" fill="none" xmlns="http://www.w3.org/2000/svg">
<g id="SVG" clip-path="url(#clip0_108_1700)">
<g id="Group">
<path id="Vector" d="M19.2785 10.5266L0.257432 29.5478C-0.0858105 29.891 -0.0858105 30.4476 0.257432 30.7907C0.429111 30.9622 0.654111 31.0481 0.878994 31.0481C1.10388 31.0481 1.32888 30.9624 1.50056 30.7907L20.5216 11.7695C21.2708 11.0202 21.6834 10.0241 21.6834 8.96463V3.02873C21.6834 2.5144 21.3764 2.05479 20.9012 1.85803C20.4261 1.66139 19.8839 1.76885 19.5201 2.13272L0.257432 21.3954C-0.0858105 21.7387 -0.0858105 22.2952 0.257432 22.6383C0.600791 22.9815 1.1572 22.9815 1.50044 22.6383L19.9255 4.21315V8.96463C19.9255 9.55467 19.6958 10.1093 19.2785 10.5266Z" fill="#C3921C"/>
<path id="Vector_2" d="M40.0718 41.7131C40.0718 42.2955 40.4195 42.8159 40.9576 43.0387C41.1362 43.1126 41.3231 43.1486 41.5082 43.1486C41.8808 43.1486 42.2462 43.0028 42.5214 42.7277L55.1488 30.1004C55.898 29.3512 56.3105 28.3551 56.3105 27.2955V12.6297C56.3105 12.0473 55.9628 11.527 55.4248 11.3041C54.8863 11.081 54.2729 11.2033 53.8609 11.6151L47.347 18.129V1.44802C47.347 0.933689 47.04 0.474079 46.5647 0.277322C46.0896 0.0804465 45.5474 0.188142 45.1838 0.552009L38.8719 6.86384V5.12877C38.8719 4.61443 38.5649 4.15482 38.0896 3.95806C37.6145 3.76119 37.0723 3.86888 36.7086 4.23275L8.08758 32.8538C7.3384 33.6031 6.92578 34.5992 6.92578 35.6587V43.7208C6.92578 44.2353 7.23281 44.6948 7.70812 44.8917C7.86586 44.957 8.03086 44.9888 8.19434 44.9888C8.5234 44.9888 8.84613 44.86 9.08906 44.617L37.7101 15.9959C38.4594 15.2466 38.8719 14.2504 38.8719 13.1909V9.34986L45.5892 2.63256V19.8869L41.2336 24.2425C40.4844 24.9918 40.0718 25.9879 40.0718 27.0474V38.0078L20.7485 57.3312V37.1338C20.7485 36.6485 20.3551 36.2549 19.8696 36.2549C19.3841 36.2549 18.9907 36.6485 18.9907 37.1338V58.5156C18.9907 59.03 19.2977 59.4896 19.773 59.6863C19.9308 59.7517 20.0958 59.7835 20.2593 59.7835C20.5883 59.7835 20.9111 59.6547 21.154 59.4117L40.0719 40.4938V41.7131H40.0718ZM8.68359 42.5364V35.6587C8.68359 35.0686 8.9134 34.514 9.33059 34.0967L37.1141 6.31318V8.62166L20.1525 25.5833C19.4033 26.3326 18.9907 27.3286 18.9907 28.3881V32.2293L8.68359 42.5364ZM37.1141 13.1909C37.1141 13.781 36.8843 14.3357 36.4671 14.7529L20.7485 30.4715V28.3881C20.7485 27.7981 20.9783 27.2435 21.3955 26.8261L37.1141 11.1077V13.1909ZM54.5527 13.4095V27.2955C54.5527 27.8855 54.323 28.4403 53.9057 28.8575L41.8296 40.9334V38.736L46.1852 34.3804C46.9344 33.6311 47.347 32.635 47.347 31.5755V20.615L54.5527 13.4095ZM41.8296 27.0474C41.8296 26.4574 42.0594 25.9027 42.4766 25.4854L45.5892 22.3728V31.5755C45.5892 32.1656 45.3594 32.7202 44.9422 33.1375L41.8296 36.2501V27.0474Z" fill="#C3921C"/>
<path id="Vector_3" d="M58.4994 33.8971L50.3971 41.9994C50.0538 42.3427 50.0538 42.8992 50.3971 43.2423C50.5688 43.4139 50.7938 43.4998 51.0186 43.4998C51.2435 43.4998 51.4685 43.414 51.6402 43.2423L59.7425 35.14C60.0858 34.7967 60.0858 34.2402 59.7425 33.8971C59.3991 33.5538 58.8427 33.5538 58.4994 33.8971Z" fill="#C3921C"/>
<path id="Vector_4" d="M58.4999 40.6988L41.8301 57.3676V53.9677C41.8301 53.3777 42.0599 52.823 42.4771 52.4057L48.7357 46.1471C49.0789 45.8039 49.0789 45.2473 48.7357 44.9042C48.3923 44.561 47.8359 44.561 47.4927 44.9042L41.2341 51.1628C40.4849 51.9121 40.0723 52.9082 40.0723 53.9677V58.552C40.0723 59.0663 40.3793 59.5258 40.8545 59.7227C41.0122 59.7881 41.1772 59.8198 41.3407 59.8198C41.6698 59.8198 41.9925 59.6911 42.2354 59.448L59.7428 41.9419C60.0861 41.5987 60.0861 41.0422 59.7429 40.6989C59.3994 40.3556 58.8429 40.3556 58.4999 40.6988Z" fill="#C3921C"/>
<path id="Vector_5" d="M11.9031 44.3107L0.257432 55.9562C-0.0858105 56.2994 -0.0858105 56.8559 0.257432 57.1991C0.429111 57.3707 0.653994 57.4565 0.878994 57.4565C1.10388 57.4565 1.32888 57.3707 1.50056 57.1991L13.1462 45.5535C13.4894 45.2103 13.4894 44.6538 13.1462 44.3107C12.8029 43.9675 12.2464 43.9673 11.9031 44.3107Z" fill="#C3921C"/>
<path id="Vector_6" d="M55.4316 7.19418C55.6565 7.19418 55.8815 7.1084 56.053 6.93672L59.6158 3.3741C59.9591 3.03086 59.9591 2.47445 59.6159 2.13121C59.2727 1.78797 58.7161 1.78797 58.373 2.13121L54.8103 5.69383C54.4669 6.03707 54.4669 6.59348 54.8102 6.93672C54.9817 7.1084 55.2066 7.19418 55.4316 7.19418Z" fill="#C3921C"/>
</g>
</g>
<defs>
<clipPath id="clip0_108_1700">
<rect width="60" height="60" fill="white"/>
</clipPath>
</defs>
</svg>
